<?xml version="1.0" encoding="UTF-8"?>
<svg version="1.1" xmlns="http://www.w3.org/2000/svg" width="348" height="348">
<path d="M0 0 C0.99386719 0.26683594 1.98773438 0.53367187 3.01171875 0.80859375 C30.03821565 8.92736785 51.15684497 27.57494539 64.625 52.0625 C77.62444521 76.60126833 79.17544432 105.13772627 71.23071289 131.58203125 C67.06225798 144.50674285 60.56385756 155.50764016 52 166 C51.46890625 166.68320313 50.9378125 167.36640625 50.390625 168.0703125 C49.31756403 169.42741902 48.1690618 170.72465986 47 172 C46.34 172 45.68 172 45 172 C44.78214844 172.56460938 44.56429687 173.12921875 44.33984375 173.7109375 C36.73502569 186.7034255 14.90594116 195.33627411 1.125 199.0625 C-1.57628423 199.76016328 -4.27595868 200.39119659 -7 201 C-7.84691406 201.19078125 -8.69382812 201.3815625 -9.56640625 201.578125 C-35.58078026 206.08783992 -61.99258292 200.14362758 -84.09375 186.0234375 C-107.61693485 169.43827065 -122.99715962 146.13639031 -129 118 C-132.99068278 91.9152059 -128.42450986 63.34567819 -112.64453125 41.72265625 C-110.17280763 38.41802288 -107.59715822 35.20678057 -105 32 C-104.42507812 31.2575 -103.85015625 30.515 -103.2578125 29.75 C-79.55647781 0.50656217 -35.26046893 -9.8490548 0 0 Z M-96.73828125 28.7890625 C-98.50478159 30.849249 -100.25979629 32.9175202 -102 35 C-102.98033203 36.14855469 -102.98033203 36.14855469 -103.98046875 37.3203125 C-119.22298849 55.6585084 -126.15865132 76.86005193 -126.3125 100.5 C-126.31813965 101.31243164 -126.3237793 102.12486328 -126.32958984 102.96191406 C-126.26236835 108.51965034 -125.4019102 113.6266796 -124 119 C-121.13275314 118.42655063 -120.1385485 118.1385485 -118 116 C-117.34 116 -116.68 116 -116 116 C-115.855625 117.093125 -115.71125 118.18625 -115.5625 119.3125 C-115.11711896 122.93122987 -115.11711896 122.93122987 -114 126 C-116.97 125.01 -119.94 124.02 -123 123 C-118.91509397 146.69245499 -103.16065163 167.16880114 -84 181 C-83.26265625 181.54140625 -82.5253125 182.0828125 -81.765625 182.640625 C-72.36068982 189.24409013 -62.01235666 192.95798592 -51 196 C-49.73929687 196.35320312 -48.47859375 196.70640625 -47.1796875 197.0703125 C-42.74175162 198.16141746 -38.36818036 198.48928533 -33.8125 198.6875 C-32.5586853 198.74284912 -32.5586853 198.74284912 -31.27954102 198.79931641 C-8.08907431 199.66954464 11.79293836 192.80470776 31 180 C31.99 179.34 32.98 178.68 34 178 C34.79309904 176.18462401 34.79309904 176.18462401 35.1875 174.125 C35.34605469 173.44695312 35.50460938 172.76890625 35.66796875 172.0703125 C36.10556919 169.69120648 36.10556919 169.69120648 36 166 C35.34 166 34.68 166 34 166 C34.20625 164.80375 34.4125 163.6075 34.625 162.375 C35.13581838 158.4423982 34.56734717 155.6878757 33 152 C33.639375 151.690625 34.27875 151.38125 34.9375 151.0625 C38.09768575 147.90231425 37.81900793 144.31666092 38 140 C38.99 140 39.98 140 41 140 C41.33 140.99 41.66 141.98 42 143 C42.66 143 43.32 143 44 143 C43.67 137.39 43.34 131.78 43 126 C43.99 126 44.98 126 46 126 C46 128.31 46 130.62 46 133 C46.639375 133.185625 47.27875 133.37125 47.9375 133.5625 C50 135 50 135 50.75 138.625 C50.8325 139.73875 50.915 140.8525 51 142 C50.38125 142.04125 49.7625 142.0825 49.125 142.125 C48.073125 142.558125 48.073125 142.558125 47 143 C45.6954344 145.99615946 45.6954344 145.99615946 45 149 C44.195625 149.12375 43.39125 149.2475 42.5625 149.375 C41.716875 149.58125 40.87125 149.7875 40 150 C38.5216774 152.95664519 38.93967217 155.74229737 39 159 C39.66 159.33 40.32 159.66 41 160 C40.44687265 164.02992782 39.8441938 168.02022924 39 172 C53.62556805 163.85507159 61.65170427 146.150582 67 131 C67.38285156 129.948125 67.76570312 128.89625 68.16015625 127.8125 C69.19075114 124.85040816 69.19075114 124.85040816 69 121 C67.35 121 65.7 121 64 121 C64 117.7 64 114.4 64 111 C65.32 111.66 66.64 112.32 68 113 C68.75 116.625 68.75 116.625 69 120 C69.33 120 69.66 120 70 120 C70.75886486 115.67718052 71.41709898 111.35007954 72 107 C72.12503906 106.07316406 72.25007812 105.14632812 72.37890625 104.19140625 C72.66027621 100.35399895 72.62343593 97.96852319 70.50390625 94.67578125 C68.75798731 92.65399985 66.96167775 90.81077946 65 89 C64.34 88.34 63.68 87.68 63 87 C62.67 87.66 62.34 88.32 62 89 C54.35578927 85.67133931 49.14674258 77.47905368 46 70 C44.99794196 66.39338633 44.08569661 62.79345837 43.28515625 59.13671875 C41.65704067 55.16292905 39.60987563 54.17927763 36 52 C34.625 48.75 34.625 48.75 34 46 C34.49628906 46.49371094 34.99257812 46.98742187 35.50390625 47.49609375 C39.99124328 51.72798465 42.7691984 53.87019163 49 54 C48.938125 55.11375 48.87625 56.2275 48.8125 57.375 C48.86146574 66.62952515 52.56616108 73.71971096 58 81 C58.33 80.34 58.66 79.68 59 79 C61.6875 79.3125 61.6875 79.3125 65 81 C67.05925535 84.51722942 68.56097842 88.19232342 70 92 C70.33 92 70.66 92 71 92 C71.16548575 86.48380835 70.72823139 81.60466682 69.3125 76.25 C69.13243408 75.55680664 68.95236816 74.86361328 68.7668457 74.14941406 C64.51102579 58.3768837 56.6420985 45.25892525 46 33 C45.01 33.495 45.01 33.495 44 34 C44 34.66 44 35.32 44 36 C43.01 35.34 42.02 34.68 41 34 C41 33.01 41 32.02 41 31 C41.99 30.505 41.99 30.505 43 30 C37.12014496 23.49757208 30.59690486 18.39451727 23 14 C22.34 14 21.68 14 21 14 C21 14.99 21 15.98 21 17 C17.37 17 13.74 17 10 17 C10.33 15.35 10.66 13.7 11 12 C13.31 12.33 15.62 12.66 18 13 C10.63285099 4.46700586 -5.33943464 2.21710838 -16 1 C-45.82954584 -0.52140414 -75.21925642 6.641392 -96.73828125 28.7890625 Z M38 172 C39 174 39 174 39 174 Z " fill="#87843F" transform="translate(205,78)"/>
<path d="M0 0 C7.041759 -0.23907206 13.3712924 0.58821063 20.25 2.0625 C21.29486572 2.28510498 22.33973145 2.50770996 23.41625977 2.73706055 C46.23880918 7.79934123 67.05697249 16.26920074 86 30 C86.56170898 30.40476562 87.12341797 30.80953125 87.70214844 31.2265625 C121.54722034 55.84116025 144.70606233 90.47439274 155 131 C155.21172852 131.80759766 155.42345703 132.61519531 155.64160156 133.44726562 C158.81389105 146.02582076 159.38741078 158.46989484 159.4375 171.375 C159.44689606 172.50832764 159.44689606 172.50832764 159.45648193 173.66455078 C159.51296334 184.43172054 158.33805434 194.49167043 156 205 C154.35 205 152.7 205 151 205 C151.14469531 203.20824107 151.29083261 201.41659858 151.4375 199.625 C151.55931641 198.12839844 151.55931641 198.12839844 151.68359375 196.6015625 C151.85522462 194.647937 152.03409373 192.69464455 152.25170898 190.74560547 C156.79548084 149.53730978 146.20087302 105.1097939 120.49658203 72.06738281 C117.53518547 68.44304253 114.45093297 64.93619193 111.31298828 61.46435547 C109.58175458 59.53353737 107.92092213 57.54553059 106.25 55.5625 C102.80926876 51.65747732 99.00328592 48.3153355 95 45 C94.28457031 44.38511719 93.56914062 43.77023438 92.83203125 43.13671875 C68.6087296 22.88977147 37.23127531 9.76426906 5.90625 6.359375 C3 6 3 6 0 5 C0 3.35 0 1.7 0 0 Z " fill="#C1091A" transform="translate(187,4)"/>
<path d="M0 0 C1.2065625 0.0309375 1.2065625 0.0309375 2.4375 0.0625 C2.18188677 2.4056213 1.84479228 4.74093403 1.4375 7.0625 C0.4475 7.5575 0.4475 7.5575 -0.5625 8.0625 C-1.95578961 12.93901365 -1.17378254 16.32343369 0.4375 21.0625 C1.0975 20.0725 1.7575 19.0825 2.4375 18.0625 C3.7575 18.3925 5.0775 18.7225 6.4375 19.0625 C6.1075 20.7125 5.7775 22.3625 5.4375 24.0625 C6.05625 23.4025 6.675 22.7425 7.3125 22.0625 C9.4375 20.0625 9.4375 20.0625 11.4375 20.0625 C11.4375 19.4025 11.4375 18.7425 11.4375 18.0625 C12.97648561 17.26563394 14.51883784 16.47526859 16.0625 15.6875 C16.92101562 15.24664062 17.77953125 14.80578125 18.6640625 14.3515625 C24.3825086 11.69369319 29.33143339 10.70122362 35.625 10.75 C36.37386475 10.75491455 37.12272949 10.7598291 37.89428711 10.76489258 C47.66529441 10.96983465 55.4904937 13.3014897 63.4375 19.0625 C61.4375 20.0625 61.4375 20.0625 59.3125 19.625 C50.04340702 17.81148181 40.82953968 19.668334 32.875 24.75 C32.25496094 25.18699219 31.63492188 25.62398437 30.99609375 26.07421875 C29.4375 27.0625 29.4375 27.0625 27.4375 27.0625 C27.19 27.59875 26.9425 28.135 26.6875 28.6875 C25.4375 31.0625 25.4375 31.0625 23.375 34.0625 C19.07739488 40.71685631 19.71654424 49.37550096 20.4375 57.0625 C21.93492888 63.51609293 24.54290728 67.71175091 29.4375 72.0625 C29.4375 72.7225 29.4375 73.3825 29.4375 74.0625 C30.76962561 74.73157666 32.10325092 75.39766798 33.4375 76.0625 C34.12585938 76.41570312 34.81421875 76.76890625 35.5234375 77.1328125 C45.79833765 81.86698151 56.70343047 80.83258246 67.4375 78.0625 C67.4375 78.7225 67.4375 79.3825 67.4375 80.0625 C58.85406363 88.2483385 48.12167933 91.44280812 36.5625 92.375 C25.23453108 91.96473151 15.07799586 87.79779411 7.11328125 79.69921875 C0.14718984 71.41974226 -3.11166917 63.85989842 -3.5625 53.0625 C-4.8825 53.0625 -6.2025 53.0625 -7.5625 53.0625 C-7.8925 51.0825 -8.2225 49.1025 -8.5625 47.0625 C-7.5725 47.0625 -6.5825 47.0625 -5.5625 47.0625 C-5.2325 47.7225 -4.9025 48.3825 -4.5625 49.0625 C-4.0675 46.0925 -4.0675 46.0925 -3.5625 43.0625 C-4.5525 43.0625 -5.5425 43.0625 -6.5625 43.0625 C-7.2225 44.0525 -7.8825 45.0425 -8.5625 46.0625 C-11.1875 46.25 -11.1875 46.25 -13.5625 46.0625 C-13.2325 45.0725 -12.9025 44.0825 -12.5625 43.0625 C-11.9025 43.0625 -11.2425 43.0625 -10.5625 43.0625 C-10.376875 41.886875 -10.376875 41.886875 -10.1875 40.6875 C-9.5625 38.0625 -9.5625 38.0625 -7.5625 36.0625 C-7.92856586 32.86108762 -9.31299297 30.73201866 -11.125 28.125 C-13.20187776 24.9082267 -14.10466332 22.96607591 -13.5625 19.0625 C-13.5625 17.7425 -13.5625 16.4225 -13.5625 15.0625 C-13.5625 13.0625 -13.5625 11.0625 -13.5625 9.0625 C-12.5725 9.0625 -11.5825 9.0625 -10.5625 9.0625 C-8.875 11.5625 -8.875 11.5625 -7.5625 14.0625 C-7.2325 12.7425 -6.9025 11.4225 -6.5625 10.0625 C-5.5725 10.0625 -4.5825 10.0625 -3.5625 10.0625 C-3.57410156 9.42441406 -3.58570313 8.78632813 -3.59765625 8.12890625 C-3.60667969 7.30261719 -3.61570313 6.47632813 -3.625 5.625 C-3.63660156 4.80128906 -3.64820313 3.97757813 -3.66015625 3.12890625 C-3.51340586 0.02366796 -3.12550237 0.07623177 0 0 Z M12.42578125 22.8515625 C10.60173462 24.83783454 9.00416117 26.86837504 7.4375 29.0625 C6.9528125 29.71863281 6.468125 30.37476563 5.96875 31.05078125 C0.87926678 38.90693121 -0.50396621 49.20659062 1 58.375 C4.20925372 70.79791762 11.45834666 79.51139652 22.23828125 86.17578125 C29.49286283 89.56983161 40.36906816 89.25026366 47.9296875 87.04296875 C48.75726563 86.71941406 49.58484375 86.39585937 50.4375 86.0625 C50.4375 85.7325 50.4375 85.4025 50.4375 85.0625 C49.45910156 84.84335937 48.48070312 84.62421875 47.47265625 84.3984375 C36.72601164 81.85754821 28.1811286 78.66563091 21.65234375 69.20703125 C16.70384865 60.47158492 15.00783597 49.72828295 17.25 39.9375 C20.29812018 29.09973936 26.04795378 23.94191893 35.5 18.48046875 C38.21705338 17.1689124 40.46707326 16.48294643 43.4375 16.0625 C43.4375 15.4025 43.4375 14.7425 43.4375 14.0625 C32.21069903 13.64061604 21.16230884 15.08199039 12.42578125 22.8515625 Z M-6.5625 16.0625 C-6.2325 18.0425 -5.9025 20.0225 -5.5625 22.0625 C-4.9025 22.0625 -4.2425 22.0625 -3.5625 22.0625 C-4.2225 20.0825 -4.8825 18.1025 -5.5625 16.0625 C-5.8925 16.0625 -6.2225 16.0625 -6.5625 16.0625 Z M-11.5625 19.0625 C-10.5625 21.0625 -10.5625 21.0625 -10.5625 21.0625 Z M-1.5625 23.0625 C-0.5625 26.0625 -0.5625 26.0625 -0.5625 26.0625 Z M-7.5625 25.0625 C-7.2325 26.7125 -6.9025 28.3625 -6.5625 30.0625 C-6.2325 29.0725 -5.9025 28.0825 -5.5625 27.0625 C-6.2225 26.4025 -6.8825 25.7425 -7.5625 25.0625 Z M-2.5625 26.0625 C-2.8925 27.7125 -3.2225 29.3625 -3.5625 31.0625 C-2.9025 30.4025 -2.2425 29.7425 -1.5625 29.0625 C-1.8925 28.0725 -2.2225 27.0825 -2.5625 26.0625 Z M-1.5625 33.0625 C-0.5625 35.0625 -0.5625 35.0625 -0.5625 35.0625 Z M-2.5625 35.0625 C-1.5625 38.0625 -1.5625 38.0625 -1.5625 38.0625 Z M-3.5625 39.0625 C-2.5625 41.0625 -2.5625 41.0625 -2.5625 41.0625 Z " fill="#88853F" transform="translate(142.5625,174.9375)"/>
<path d="M0 0 C1.32 0.66 2.64 1.32 4 2 C3.98428955 3.14774902 3.9685791 4.29549805 3.95239258 5.47802734 C3.89716941 9.82805061 3.86332217 14.17804458 3.83520508 18.52832031 C3.82032497 20.39393358 3.80001442 22.25951323 3.77368164 24.125 C3.54618475 40.68320494 5.06426485 56.31068607 10 72.1875 C10.29197266 73.1352832 10.58394531 74.08306641 10.88476562 75.05957031 C15.72720775 90.04549863 22.69148785 105.24389076 32 118 C32.74636719 119.02738281 33.49273437 120.05476563 34.26171875 121.11328125 C59.91309399 155.70222181 95.69137992 179.17324607 138.12109375 187.36694336 C138.99378906 187.54104736 139.86648437 187.71515137 140.765625 187.89453125 C141.53680664 188.03737549 142.30798828 188.18021973 143.10253906 188.32739258 C145 189 145 189 147 192 C116.29075778 193.63347033 83.99079865 179.20556974 61 159 C61 158.34 61 157.68 61 157 C60.43539062 156.75121094 59.87078125 156.50242187 59.2890625 156.24609375 C50.71644489 151.5794299 43.09142905 142.58188509 37 135 C37 134.34 37 133.68 37 133 C36.34 133 35.68 133 35 133 C33.38110949 131.01387535 31.89988294 129.03548476 30.4375 126.9375 C29.99422363 126.30553711 29.55094727 125.67357422 29.09423828 125.02246094 C13.96861458 103.19288512 3.54434623 79.2729421 -1 53 C-1.20496094 51.84371094 -1.40992188 50.68742187 -1.62109375 49.49609375 C-2.9247224 40.87416358 -3.20400064 32.34157262 -3.25 23.625 C-3.25926514 22.53155273 -3.26853027 21.43810547 -3.27807617 20.31152344 C-3.21174756 3.21174756 -3.21174756 3.21174756 0 0 Z " fill="#C30819" transform="translate(5,151)"/>
<path d="M0 0 C3.69186539 0.19848739 4.88355206 0.88064993 7.5078125 3.5703125 C8.40113645 4.73951092 9.27211122 5.92598651 10.125 7.125 C10.59437988 7.77734619 11.06375977 8.42969238 11.54736328 9.10180664 C20.99613878 22.80048865 28.09250885 38.82595434 32 55 C32.15936035 55.64018066 32.3187207 56.28036133 32.48291016 56.93994141 C40.56155464 90.77706512 34.69191039 128.17316014 17 158 C8.41225962 171.58774038 8.41225962 171.58774038 4 176 C1.375 175.625 1.375 175.625 -1 175 C-0.71179653 170.38874448 1.44606482 167.92042837 4.18359375 164.4375 C11.7286921 154.31246479 17.40530398 143.31119919 21.5625 131.4375 C21.85318359 130.64537109 22.14386719 129.85324219 22.44335938 129.03710938 C26.89502352 116.39916353 28.50476073 104.08899514 28.39111328 90.79370117 C28.37503192 88.5669206 28.39106793 86.3419606 28.41015625 84.11523438 C28.45273645 55.33617058 17.61397793 28.89805191 0.22265625 6.2265625 C-1 4 -1 4 -0.69140625 1.7109375 C-0.46324219 1.14632812 -0.23507812 0.58171875 0 0 Z " fill="#0FA356" transform="translate(280,90)"/>
<path d="M0 0 C-0.52695414 4.57530025 -2.32928506 7.16039976 -5.0625 10.8125 C-21.05858416 32.94186446 -28.44969097 59.04862127 -28.375 86.125 C-28.37412384 86.90101563 -28.37324768 87.67703125 -28.37234497 88.4765625 C-28.32902148 100.10464861 -27.7384188 110.90206916 -24 122 C-23.75862305 122.76086914 -23.51724609 123.52173828 -23.26855469 124.30566406 C-18.37988818 139.54969458 -11.43357243 153.30800643 -1.3359375 165.765625 C0 168 0 168 -0.2890625 170.296875 C-0.52367187 170.85890625 -0.75828125 171.4209375 -1 172 C-2.32 172.33 -3.64 172.66 -5 173 C-16.45724255 157.7042904 -25.99537438 141.56707492 -31 123 C-31.29632324 121.90582764 -31.29632324 121.90582764 -31.59863281 120.78955078 C-40.66828057 85.57230149 -35.04992382 47.39614124 -17 16 C-14.79829105 12.55675944 -12.44201002 9.27465465 -10 6 C-9.22085691 4.81793557 -8.44867014 3.63121701 -7.6875 2.4375 C-5.18173059 -1.1819447 -4.00566173 -1.20169852 0 0 Z " fill="#10A457" transform="translate(76,92)"/>
<path d="M0 0 C2.5 0.3125 2.5 0.3125 5 1 C5.99 1 6.98 1 8 1 C11.1782099 4.2690159 12 5.32165993 12 10 C12.99 10.33 13.98 10.66 15 11 C16.09765625 12.8125 16.09765625 12.8125 17.0625 15 C18.32230077 18.1514696 18.32230077 18.1514696 21 20 C21.60728509 22.46962605 21.95743178 24.94350793 22.33984375 27.45703125 C23.07046423 30.2714332 24.22845456 31.73223634 26 34 C27.71214705 40.8485882 26.33888712 46.24052758 24.4831543 52.88769531 C22.84249576 58.97890063 22.57031515 64.69795551 23 71 C22.01 71 21.02 71 20 71 C19.15642037 67.940229 18.3269798 64.8767954 17.5 61.8125 C17.26152344 60.94818359 17.02304688 60.08386719 16.77734375 59.19335938 C16.55175781 58.35224609 16.32617188 57.51113281 16.09375 56.64453125 C15.88427734 55.87471924 15.67480469 55.10490723 15.45898438 54.31176758 C14.96461271 51.82176477 14.92166481 49.53218501 15 47 C14.01 47 13.02 47 12 47 C12 48.32 12 49.64 12 51 C12.99 51.66 13.98 52.32 15 53 C15.40843923 55.71203652 15.13336867 58.2437142 15 61 C14.01 60.67 13.02 60.34 12 60 C12 59.34 12 58.68 12 58 C10.35 59.32 8.7 60.64 7 62 C4.14076381 59.14076381 5.00867965 51.46273387 4.9375 47.66796875 C4.9375 44.77792861 4.95531439 41.88966932 5 39 C6.485 39.495 6.485 39.495 8 40 C8.495 43.465 8.495 43.465 9 47 C9.33 44.36 9.66 41.72 10 39 C12.49064888 38.31292445 14.37886292 38 17 38 C18.125 42.75 18.125 42.75 17 45 C17.66 45 18.32 45 19 45 C19.0810206 42.89646505 19.13919907 40.79204048 19.1875 38.6875 C19.22230469 37.51574219 19.25710937 36.34398437 19.29296875 35.13671875 C19.27824625 32.03923035 19.27824625 32.03923035 17.625 30.15625 C15.82692003 28.87684694 14.01234964 27.90208777 12 27 C12 26.34 12 25.68 12 25 C12.99 25 13.98 25 15 25 C15.33 23.68 15.66 22.36 16 21 C15.01 21.66 14.02 22.32 13 23 C10.875 22.8125 10.875 22.8125 9 22 C8.505 20.515 8.505 20.515 8 19 C9.32 19 10.64 19 12 19 C11.67 18.67 11.34 18.34 11 18 C9.32457024 18.28604898 7.65614657 18.61781233 6 19 C6 19.66 6 20.32 6 21 C6.66 21 7.32 21 8 21 C11.22265625 26.17578125 11.22265625 26.17578125 12 28 C11.505 29.485 11.505 29.485 11 31 C10.01 31 9.02 31 8 31 C8 31.66 8 32.32 8 33 C6.68 33 5.36 33 4 33 C3.73445313 32.43410156 3.46890625 31.86820313 3.1953125 31.28515625 C2.66550781 30.18494141 2.66550781 30.18494141 2.125 29.0625 C1.77695313 28.33160156 1.42890625 27.60070312 1.0703125 26.84765625 C0.1315023 24.83667541 0.1315023 24.83667541 -2 24 C-2 22.68 -2 21.36 -2 20 C-2.99 20 -3.98 20 -5 20 C-5 19.01 -5 18.02 -5 17 C-3.35 17 -1.7 17 0 17 C0 16.34 0 15.68 0 15 C-1.670625 15.2784375 -1.670625 15.2784375 -3.375 15.5625 C-7 16 -7 16 -9 15 C-9.0825 15.598125 -9.165 16.19625 -9.25 16.8125 C-10.24235279 19.70686231 -11.30924205 20.57987775 -14 22 C-16.43359375 21.859375 -16.43359375 21.859375 -19 21 C-20.80078125 18.93359375 -20.80078125 18.93359375 -22.3125 16.4375 C-22.82425781 15.61121094 -23.33601562 14.78492188 -23.86328125 13.93359375 C-24.23839844 13.29550781 -24.61351562 12.65742188 -25 12 C-24.67 11.34 -24.34 10.68 -24 10 C-23.34 10.66 -22.68 11.32 -22 12 C-21.67 11.01 -21.34 10.02 -21 9 C-17.63279613 10.39332574 -16.0140476 11.9789286 -14 15 C-14.66 12.69 -15.32 10.38 -16 8 C-15.01 8 -14.02 8 -13 8 C-13 7.34 -13 6.68 -13 6 C-7.73316708 3.96508728 -7.73316708 3.96508728 -5.03125 4.09375 C-1.94851862 5.46912246 -0.9571392 7.7063248 0.75 10.5625 C1.67039063 12.08037109 1.67039063 12.08037109 2.609375 13.62890625 C3.06828125 14.41136719 3.5271875 15.19382813 4 16 C3.41304689 13.00615514 3.41304689 13.00615514 1.625 10.625 C-0.60310744 8.39689256 -1.67728616 5.83438681 -3 3 C-1.8125 1.4375 -1.8125 1.4375 0 0 Z M2 6 C2.99 6.99 3.98 7.98 5 9 C4.67 8.01 4.34 7.02 4 6 C3.34 6 2.68 6 2 6 Z M7 5 C6.34 5.66 5.68 6.32 5 7 C6.32 6.67 7.64 6.34 9 6 C8.34 5.67 7.68 5.34 7 5 Z M-13 8 C-12 10 -12 10 -12 10 Z M-4 9 C-5.32 9.99 -6.64 10.98 -8 12 C-5.525 12.495 -5.525 12.495 -3 13 C-3.33 11.68 -3.66 10.36 -4 9 Z M11 10 C9.68 11.32 8.36 12.64 7 14 C7.99 14.495 7.99 14.495 9 15 C9 14.34 9 13.68 9 13 C9.99 12.67 10.98 12.34 12 12 C11.67 11.34 11.34 10.68 11 10 Z M-20 13 C-20 13.99 -20 14.98 -20 16 C-18.05990478 17.70532323 -18.05990478 17.70532323 -16 19 C-16.27617533 17.05925139 -16.27617533 17.05925139 -17 15 C-17.99 14.34 -18.98 13.68 -20 13 Z M13 15 C13 15.66 13 16.32 13 17 C13.66 17 14.32 17 15 17 C15 16.34 15 15.68 15 15 C14.34 15 13.68 15 13 15 Z M1 19 C0.34 19.66 -0.32 20.32 -1 21 C0.32 20.67 1.64 20.34 3 20 C2.34 19.67 1.68 19.34 1 19 Z M7 28 C8 30 8 30 8 30 Z M22 34 C21.67 39.28 21.34 44.56 21 50 C23.69423287 45.95865069 24.11848959 44.19010472 24.0625 39.375 C24.04896484 37.87066406 24.04896484 37.87066406 24.03515625 36.3359375 C24.02355469 35.56507813 24.01195312 34.79421875 24 34 C23.34 34 22.68 34 22 34 Z " fill="#8B873F" transform="translate(218,125)"/>
<path d="M0 0 C0.66 0 1.32 0 2 0 C2 2.64 2 5.28 2 8 C2.99 8 3.98 8 5 8 C5.77001757 14.9301581 3.0898056 19.89763393 0 26 C0.33 25.67 0.66 25.34 1 25 C2 24 3 23 4 22 C5.51403812 26.84492197 4.36602172 30.2591011 3 35 C3.66 35 4.32 35 5 35 C5 36.32 5 37.64 5 39 C5.66 39 6.32 39 7 39 C7.5046729 49.6728972 7.5046729 49.6728972 4 55 C2.81012612 60.20333735 2.56325402 63.12650804 5 68 C5 63.38 5 58.76 5 54 C5.66 54 6.32 54 7 54 C7.67848208 56.18386418 8.3422551 58.37230084 9 60.5625 C9.556875 62.38974609 9.556875 62.38974609 10.125 64.25390625 C10.99742375 67.98897043 11.11229085 71.18211123 11 75 C11.42854995 77.31036915 11.42854995 77.31036915 12 79 C11.34 78.71125 10.68 78.4225 10 78.125 C6.92559636 76.81542174 6.92559636 76.81542174 3.125 76.6875 C-0.24071541 75.92605488 -1.00486859 74.9932299 -3.0703125 72.12109375 C-8 63.18977733 -8 63.18977733 -8 58 C-8.71089294 55.94363173 -9.56634425 53.9912522 -10.44140625 52 C-11.10253798 49.63287099 -10.7751704 48.2998433 -10 46 C-8.68 47.32 -7.36 48.64 -6 50 C-6.6496875 48.80503906 -6.6496875 48.80503906 -7.3125 47.5859375 C-8.1478125 45.99652344 -8.1478125 45.99652344 -9 44.375 C-9.556875 43.33085937 -10.11375 42.28671875 -10.6875 41.2109375 C-12.0578255 37.85853405 -12.2580505 35.58045064 -12 32 C-11.34 32 -10.68 32 -10 32 C-10.020625 30.72125 -10.04125 29.4425 -10.0625 28.125 C-10.125 24.25 -10.125 24.25 -9 22 C-8.34 22 -7.68 22 -7 22 C-7 18.04 -7 14.08 -7 10 C-6.01 9.67 -5.02 9.34 -4 9 C-2.76049958 6.90861544 -2.76049958 6.90861544 -1.8125 4.4375 C-1.46832031 3.61121094 -1.12414062 2.78492188 -0.76953125 1.93359375 C-0.51558594 1.29550781 -0.26164062 0.65742188 0 0 Z M0 13 C1 16 1 16 1 16 Z M-6 25 C-6 26.65 -6 28.3 -6 30 C-5.67 30 -5.34 30 -5 30 C-5 28.35 -5 26.7 -5 25 C-5.33 25 -5.66 25 -6 25 Z M-2 28 C-2.33 30.31 -2.66 32.62 -3 35 C-0.64046906 32.64046906 -0.50858587 31.22104383 0 28 C-0.66 28 -1.32 28 -2 28 Z M-1 40 C-1.66 40.66 -2.32 41.32 -3 42 C-2.67 42.99 -2.34 43.98 -2 45 C-1.34 43.35 -0.68 41.7 0 40 C-0.33 40 -0.66 40 -1 40 Z M2 45 C-0.4056808 48.94075703 -0.4056808 48.94075703 -0.6875 53.375 C-0.460625 53.91125 -0.23375 54.4475 0 55 C2.60759567 50.15531261 2.60759567 50.15531261 2 45 Z M-3 62 C-1.6302836 65.99500618 0.25722422 68.80009492 3 72 C3.66 71.67 4.32 71.34 5 71 C3.85793642 69.49712782 2.71125043 67.99776716 1.5625 66.5 C0.92441406 65.6646875 0.28632812 64.829375 -0.37109375 63.96875 C-0.90863281 63.3190625 -1.44617188 62.669375 -2 62 C-2.33 62 -2.66 62 -3 62 Z " fill="#8B8437" transform="translate(119,137)"/>
<path d="M0 0 C0.99 0 1.98 0 3 0 C3.12375 0.639375 3.2475 1.27875 3.375 1.9375 C3.58125 2.618125 3.7875 3.29875 4 4 C4.66 4.33 5.32 4.66 6 5 C6 5.66 6 6.32 6 7 C5.34 7 4.68 7 4 7 C4.33 8.32 4.66 9.64 5 11 C6.32 11 7.64 11 9 11 C9.66 11.99 10.32 12.98 11 14 C13.58380177 14.25030977 13.58380177 14.25030977 16 14 C16.2475 14.61875 16.495 15.2375 16.75 15.875 C18.20628639 18.35068687 19.37812506 18.95125002 22 20 C22 20.33 22 20.66 22 21 C23.98 21.33 25.96 21.66 28 22 C27.67 23.32 27.34 24.64 27 26 C27.66 26 28.32 26 29 26 C29 26.99 29 27.98 29 29 C22.9453125 29.9765625 22.9453125 29.9765625 21 30 C20.34 29.34 19.68 28.68 19 28 C17.68 28 16.36 28 15 28 C14.34 26.35 13.68 24.7 13 23 C11.68 23 10.36 23 9 23 C8.505 21.02 8.505 21.02 8 19 C7.34 19 6.68 19 6 19 C6.66 20.65 7.32 22.3 8 24 C5.95301586 26.04698414 1.69588759 25.70045693 -1 26 C-1.33 27.98 -1.66 29.96 -2 32 C-2.66 32 -3.32 32 -4 32 C-4 28.04 -4 24.08 -4 20 C-4.66 20 -5.32 20 -6 20 C-6.66 20.99 -7.32 21.98 -8 23 C-8.66 22.01 -9.32 21.02 -10 20 C-11.97747122 19.63702064 -11.97747122 19.63702064 -14.125 19.8125 C-15.40375 19.874375 -16.6825 19.93625 -18 20 C-18 22.64 -18 25.28 -18 28 C-18.66 27.67 -19.32 27.34 -20 27 C-20.44041451 21.62694301 -20.44041451 21.62694301 -20 19 C-17.5 17 -17.5 17 -15 16 C-16.32 15.34 -17.64 14.68 -19 14 C-20.32 14.99 -21.64 15.98 -23 17 C-23.66 16.67 -24.32 16.34 -25 16 C-24.67 15.34 -24.34 14.68 -24 14 C-23.77377919 12.29636178 -23.59111527 10.58671299 -23.4375 8.875 C-23.35371094 7.96492187 -23.26992187 7.05484375 -23.18359375 6.1171875 C-23.12300781 5.41851562 -23.06242187 4.71984375 -23 4 C-22.01 4 -21.02 4 -20 4 C-20 5.98 -20 7.96 -20 10 C-18.35 10.33 -16.7 10.66 -15 11 C-15 9.68 -15 8.36 -15 7 C-12 8 -12 8 -11 10 C-10.67 7.36 -10.34 4.72 -10 2 C-9.34 2 -8.68 2 -8 2 C-7.79503906 2.68707031 -7.59007812 3.37414062 -7.37890625 4.08203125 C-7.10949219 4.98308594 -6.84007812 5.88414062 -6.5625 6.8125 C-6.29566406 7.70582031 -6.02882812 8.59914062 -5.75390625 9.51953125 C-5.19612127 11.35473055 -4.60655425 13.18033726 -4 15 C-4.804375 14.979375 -5.60875 14.95875 -6.4375 14.9375 C-8.93354885 14.70366379 -8.93354885 14.70366379 -10 16 C-8.02 16 -6.04 16 -4 16 C-3.95101562 15.38511719 -3.90203125 14.77023438 -3.8515625 14.13671875 C-3.77679688 13.32847656 -3.70203125 12.52023438 -3.625 11.6875 C-3.55539063 10.88699219 -3.48578125 10.08648437 -3.4140625 9.26171875 C-3 7 -3 7 -1 4 C-1 3.01 -1 2.02 -1 1 C-0.67 0.67 -0.34 0.34 0 0 Z M7 15 C6.01 16.485 6.01 16.485 5 18 C5.99 17.67 6.98 17.34 8 17 C7.67 16.34 7.34 15.68 7 15 Z " fill="#898439" transform="translate(150,150)"/>
<path d="M0 0 C2.96628979 1.24896412 2.97830272 2.20660545 4.375 5 C6.355 5.99 8.335 6.98 10.375 8 C10.705 14.6 11.035 21.2 11.375 28 C14.015 28 16.655 28 19.375 28 C19.87 26.515 19.87 26.515 20.375 25 C21.035 25 21.695 25 22.375 25 C22.57416016 25.92232422 22.57416016 25.92232422 22.77734375 26.86328125 C22.95394531 27.67152344 23.13054687 28.47976562 23.3125 29.3125 C23.48652344 30.11300781 23.66054687 30.91351563 23.83984375 31.73828125 C24.37386159 34.145401 24.37386159 34.145401 25.375 37 C24.88 37.99 24.88 37.99 24.375 39 C23.715 39 23.055 39 22.375 39 C21.715 40.98 21.055 42.96 20.375 45 C19.385 45 18.395 45 17.375 45 C16.715 46.98 16.055 48.96 15.375 51 C14.715 51 14.055 51 13.375 51 C12.385 52.98 11.395 54.96 10.375 57 C9.385 56.01 8.395 55.02 7.375 54 C6.385 54.99 5.395 55.98 4.375 57 C2.89 56.505 2.89 56.505 1.375 56 C1.849375 55.2575 2.32375 54.515 2.8125 53.75 C4.4381025 51.17532911 4.4381025 51.17532911 4.9375 48.75 C5.081875 48.1725 5.22625 47.595 5.375 47 C6.365 46.505 6.365 46.505 7.375 46 C7.705 45.01 8.035 44.02 8.375 43 C9.365 42.34 10.355 41.68 11.375 41 C12.09882467 38.94074861 12.09882467 38.94074861 12.375 37 C14.685 36.34 16.995 35.68 19.375 35 C18.055 35 16.735 35 15.375 35 C15.375 34.34 15.375 33.68 15.375 33 C14.385 33 13.395 33 12.375 33 C12.375 32.34 12.375 31.68 12.375 31 C11.385 31.33 10.395 31.66 9.375 32 C7.83657272 30.46157272 8.21277411 28.99174497 8.1640625 26.8515625 C8.13570312 26.01109375 8.10734375 25.170625 8.078125 24.3046875 C8.02627541 22.52624646 7.98193526 20.74756974 7.9453125 18.96875 C7.914375 18.12570313 7.8834375 17.28265625 7.8515625 16.4140625 C7.83174316 15.6401416 7.81192383 14.8662207 7.79150391 14.06884766 C7.28200454 11.53807529 6.32839643 10.62642473 4.375 9 C4.38660156 9.98742187 4.39820313 10.97484375 4.41015625 11.9921875 C4.41917969 13.27351562 4.42820313 14.55484375 4.4375 15.875 C4.44910156 17.15117187 4.46070313 18.42734375 4.47265625 19.7421875 C4.375 23 4.375 23 3.375 25 C2.715 25 2.055 25 1.375 25 C1.045 17.74 0.715 10.48 0.375 3 C-0.615 3.495 -0.615 3.495 -1.625 4 C-2.81578841 7.57236522 -2.69568206 10.789192 -2.625 14.5 C-2.48986486 21.59459459 -2.48986486 21.59459459 -3.625 25 C-4.285 25 -4.945 25 -5.625 25 C-5.67398438 23.92878906 -5.72296875 22.85757813 -5.7734375 21.75390625 C-5.84845294 20.35674361 -5.9240013 18.9596095 -6 17.5625 C-6.0309375 16.85544922 -6.061875 16.14839844 -6.09375 15.41992188 C-6.19780629 13.60760812 -6.40419892 11.80182012 -6.625 10 C-7.285 9.67 -7.945 9.34 -8.625 9 C-9.38868862 15.2867938 -9.70644234 21.41653713 -9.5625 27.75 C-9.625 30 -9.625 30 -10.625 32 C-12.605 32 -14.585 32 -16.625 32 C-15.965 32.66 -15.305 33.32 -14.625 34 C-13.965 34 -13.305 34 -12.625 34 C-12.625 34.66 -12.625 35.32 -12.625 36 C-13.285 36 -13.945 36 -14.625 36 C-14.625 36.66 -14.625 37.32 -14.625 38 C-16.5625 37.3125 -16.5625 37.3125 -18.625 36 C-19.375 33.375 -19.375 33.375 -19.625 31 C-17.315 30.01 -15.005 29.02 -12.625 28 C-12.6564209 27.41508789 -12.6878418 26.83017578 -12.72021484 26.22753906 C-12.84519139 23.56875534 -12.92304083 20.9105885 -13 18.25 C-13.05027344 17.32960937 -13.10054687 16.40921875 -13.15234375 15.4609375 C-13.20916869 12.84699014 -13.19151046 10.55426645 -12.625 8 C-9.73046875 5.50390625 -9.73046875 5.50390625 -6.625 4 C-5.944375 3.236875 -5.26375 2.47375 -4.5625 1.6875 C-2.625 0 -2.625 0 0 0 Z M13.375 30 C14.035 30.66 14.695 31.32 15.375 32 C15.375 31.34 15.375 30.68 15.375 30 C14.715 30 14.055 30 13.375 30 Z " fill="#848345" transform="translate(177.625,125)"/>
<path d="M0 0 C1.2065625 0.0309375 1.2065625 0.0309375 2.4375 0.0625 C2.774111 1.83271322 3.10667293 3.60369674 3.4375 5.375 C3.623125 6.36113281 3.80875 7.34726562 4 8.36328125 C4.4375 11.0625 4.4375 11.0625 4.4375 14.0625 C7.9025 13.5675 7.9025 13.5675 11.4375 13.0625 C11.4375 10.0925 11.4375 7.1225 11.4375 4.0625 C13.4175 4.0625 15.3975 4.0625 17.4375 4.0625 C17.63143875 6.20776099 17.81748676 8.35373677 18 10.5 C18.15662109 12.29244141 18.15662109 12.29244141 18.31640625 14.12109375 C18.37634766 15.57708984 18.37634766 15.57708984 18.4375 17.0625 C16.83983438 18.66016562 14.9798277 18.49255581 12.7734375 18.78125 C11.81566406 18.90886719 10.85789063 19.03648438 9.87109375 19.16796875 C8.86175781 19.29816406 7.85242188 19.42835937 6.8125 19.5625 C4.84112683 19.8227728 2.86977225 20.08318639 0.8984375 20.34375 C-0.03774414 20.46621094 -0.97392578 20.58867188 -1.93847656 20.71484375 C-5.15018631 21.14036242 -8.35658167 21.5955315 -11.5625 22.0625 C-12.2225 20.4125 -12.8825 18.7625 -13.5625 17.0625 C-15.2125 17.0625 -16.8625 17.0625 -18.5625 17.0625 C-18.2325 17.7225 -17.9025 18.3825 -17.5625 19.0625 C-16.22374936 23.07875193 -16.15259021 25.82676553 -16.5625 30.0625 C-18.375 32.125 -18.375 32.125 -20.5625 33.0625 C-21.5525 32.7325 -22.5425 32.4025 -23.5625 32.0625 C-23.5625 30.7425 -23.5625 29.4225 -23.5625 28.0625 C-22.9025 28.0625 -22.2425 28.0625 -21.5625 28.0625 C-21.85125 27.25425781 -22.14 26.44601563 -22.4375 25.61328125 C-22.80875 24.54464844 -23.18 23.47601563 -23.5625 22.375 C-24.119375 20.79138672 -24.119375 20.79138672 -24.6875 19.17578125 C-25.5016857 16.27887944 -25.73959796 14.04549377 -25.5625 11.0625 C-23.9125 10.7325 -22.2625 10.4025 -20.5625 10.0625 C-20.5625 10.7225 -20.5625 11.3825 -20.5625 12.0625 C-18.5825 11.7325 -16.6025 11.4025 -14.5625 11.0625 C-14.5625 10.0725 -14.5625 9.0825 -14.5625 8.0625 C-12.9125 7.7325 -11.2625 7.4025 -9.5625 7.0625 C-8.9025 10.0325 -8.2425 13.0025 -7.5625 16.0625 C-5.5825 15.7325 -3.6025 15.4025 -1.5625 15.0625 C-1.71847656 14.06347656 -1.87445313 13.06445312 -2.03515625 12.03515625 C-2.22980469 10.74480469 -2.42445313 9.45445313 -2.625 8.125 C-2.82222656 6.83722656 -3.01945312 5.54945312 -3.22265625 4.22265625 C-3.33480469 3.17980469 -3.44695312 2.13695312 -3.5625 1.0625 C-2.5625 0.0625 -2.5625 0.0625 0 0 Z " fill="#898336" transform="translate(152.5625,40.9375)"/>
<path d="M0 0 C0.66 0 1.32 0 2 0 C2.33 1.32 2.66 2.64 3 4 C4.32 3.67 5.64 3.34 7 3 C7 3.66 7 4.32 7 5 C7.66 5 8.32 5 9 5 C9.33 4.01 9.66 3.02 10 2 C10.66 2 11.32 2 12 2 C11.67 3.65 11.34 5.3 11 7 C11.99 7 12.98 7 14 7 C14 7.66 14 8.32 14 9 C15.65 8.67 17.3 8.34 19 8 C19 8.66 19 9.32 19 10 C19.66 10.33 20.32 10.66 21 11 C20.67 12.32 20.34 13.64 20 15 C21.65 14.67 23.3 14.34 25 14 C24.484375 14.598125 23.96875 15.19625 23.4375 15.8125 C22.963125 16.534375 22.48875 17.25625 22 18 C22.495 19.485 22.495 19.485 23 21 C22.67 21.66 22.34 22.32 22 23 C23.65 23 25.3 23 27 23 C24.31907309 25.68092691 22.60832637 25.38670257 18.875 25.625 C17.77929688 25.69976562 16.68359375 25.77453125 15.5546875 25.8515625 C14.71164063 25.90054688 13.86859375 25.94953125 13 26 C13.66 25.01 14.32 24.02 15 23 C15.66 23 16.32 23 17 23 C14.11437875 17.73948692 11.63571327 13.60109843 6 11 C1.36408803 10.18638474 -2.64707513 10.49762977 -6.875 12.625 C-10.25803013 15.1961029 -11.53959705 17.04832144 -13 21 C-13 21.66 -13 22.32 -13 23 C-11.68 23.66 -10.36 24.32 -9 25 C-13.62 25.33 -18.24 25.66 -23 26 C-23 24 -23 24 -21 22 C-20.66781808 18.99740483 -20.66781808 18.99740483 -22.5 17.3125 C-23.2425 16.6628125 -23.2425 16.6628125 -24 16 C-22.35 16 -20.7 16 -19 16 C-19 15.01 -19 14.02 -19 13 C-18.34 13 -17.68 13 -17 13 C-17 12.34 -17 11.68 -17 11 C-18.32 10.34 -19.64 9.68 -21 9 C-21 8.34 -21 7.68 -21 7 C-18.33333333 7.66666667 -15.66666667 8.33333333 -13 9 C-13 8.34 -13 7.68 -13 7 C-11.68 7 -10.36 7 -9 7 C-9.33 5.35 -9.66 3.7 -10 2 C-8 2 -8 2 -6.375 3.5 C-5.694375 4.2425 -5.694375 4.2425 -5 5 C-1.88667752 4.33131686 -1.88667752 4.33131686 -0.8125 1.9375 C-0.544375 1.298125 -0.27625 0.65875 0 0 Z " fill="#89843A" transform="translate(175,106)"/>
<path d="M0 0 C0.598125 0.226875 1.19625 0.45375 1.8125 0.6875 C1.8125 2.0075 1.8125 3.3275 1.8125 4.6875 C2.1425 5.0175 2.4725 5.3475 2.8125 5.6875 C2.58151461 7.42581313 2.27649472 9.15448572 1.9375 10.875 C1.65132812 12.36 1.65132812 12.36 1.359375 13.875 C1.17890625 14.803125 0.9984375 15.73125 0.8125 16.6875 C0.47367344 18.68657671 0.13705828 20.68605726 -0.1875 22.6875 C1.4625 23.0175 3.1125 23.3475 4.8125 23.6875 C4.8125 25.9975 4.8125 28.3075 4.8125 30.6875 C4.1525 30.6875 3.4925 30.6875 2.8125 30.6875 C2.8125 30.0275 2.8125 29.3675 2.8125 28.6875 C0.0285817 30.07945915 -0.16648997 31.84325779 -1.1875 34.6875 C-2.1775 34.6875 -3.1675 34.6875 -4.1875 34.6875 C-5.6725 29.7375 -5.6725 29.7375 -7.1875 24.6875 C-8.1775 26.6675 -9.1675 28.6475 -10.1875 30.6875 C-9.5275 31.0175 -8.8675 31.3475 -8.1875 31.6875 C-8.5175 33.3375 -8.8475 34.9875 -9.1875 36.6875 C-10.8375 36.3575 -12.4875 36.0275 -14.1875 35.6875 C-14.6825 34.2025 -14.6825 34.2025 -15.1875 32.6875 C-17.22027473 31.73632642 -17.22027473 31.73632642 -19.625 31.125 C-23.99019058 29.88480942 -23.99019058 29.88480942 -26.1875 27.6875 C-26.3125 25.0625 -26.3125 25.0625 -26.1875 22.6875 C-24.2075 23.0175 -22.2275 23.3475 -20.1875 23.6875 C-20.1875 23.3575 -20.1875 23.0275 -20.1875 22.6875 C-20.02644047 21.16606264 -19.85880344 19.64531804 -19.6875 18.125 C-19.54828125 16.88556641 -19.54828125 16.88556641 -19.40625 15.62109375 C-19.3340625 14.98300781 -19.261875 14.34492188 -19.1875 13.6875 C-17.8675 13.6875 -16.5475 13.6875 -15.1875 13.6875 C-13.0489515 15.8260485 -12.76094937 16.82025314 -12.1875 19.6875 C-10.8675 19.6875 -9.5475 19.6875 -8.1875 19.6875 C-8.1875 16.7175 -8.1875 13.7475 -8.1875 10.6875 C-6.8675 11.3475 -5.5475 12.0075 -4.1875 12.6875 C-3.4375 15.8125 -3.4375 15.8125 -3.1875 18.6875 C-1.71702664 14.77686776 -1.71702664 14.77686776 -1.1875 10.6875 C-2.1775 10.6875 -3.1675 10.6875 -4.1875 10.6875 C-5.5245565 3.27291393 -5.5245565 3.27291393 -4 0.625 C-2.1875 -0.3125 -2.1875 -0.3125 0 0 Z " fill="#8A8437" transform="translate(218.1875,155.3125)"/>
<path d="M0 0 C1.58437117 0.06047218 3.16767058 0.14938946 4.75 0.25 C5.63171875 0.29640625 6.5134375 0.3428125 7.421875 0.390625 C10.74098466 1.17514183 11.90088322 2.33959765 14 5 C15.125 7.48046875 15.125 7.48046875 16 10.1875 C17.22980171 13.81880426 18.52939463 17.32580678 20.125 20.8125 C21.65301852 24.15392572 22.8376758 27.51302739 24 31 C25.66381684 35.26670295 25.66381684 35.26670295 29 38 C29.4125 38.928125 29.825 39.85625 30.25 40.8125 C32.34876595 44.63525226 34.38000069 45.60943442 38 48 C42.71108287 52.64642095 46.645336 57.55015418 49.796875 63.37109375 C51.27142319 65.3674788 52.73556871 66.05331549 55 67 C51.3558226 69.4294516 49.28758728 69.16179575 45 69 C44.731875 68.46632813 44.46375 67.93265625 44.1875 67.3828125 C39.32369324 58.1351799 33.19364821 50.48663816 25 44 C25.33 42.68 25.66 41.36 26 40 C25.195625 39.7525 24.39125 39.505 23.5625 39.25 C21 38 21 38 20.1875 35.875 C20.125625 35.25625 20.06375 34.6375 20 34 C19.34 34 18.68 34 18 34 C17.67 34.99 17.34 35.98 17 37 C14.34828366 35.3747545 13.16867 34.48191427 12.125 31.5 C12 29 12 29 14 26 C15.32 26 16.64 26 18 26 C16.6910428 22.87802522 16.6910428 22.87802522 14 21 C13.23657323 18.66200551 12.58875845 16.38220728 12 14 C11.81179687 13.26007813 11.62359375 12.52015625 11.4296875 11.7578125 C10.94524585 9.84051528 10.47169509 7.92047288 10 6 C5.545 5.01 5.545 5.01 1 4 C0.67 2.68 0.34 1.36 0 0 Z " fill="#86843C" transform="translate(81,183)"/>
<path d="M0 0 C0.66 0 1.32 0 2 0 C2.495 6.93 2.495 6.93 3 14 C6.3 14.99 9.6 15.98 13 17 C13 17.99 13 18.98 13 20 C12.16855469 20.17208984 12.16855469 20.17208984 11.3203125 20.34765625 C8.58580924 21.23807279 7.06724366 21.96228839 5 24 C3.65118969 28.97980767 3.25573237 33.85977932 3 39 C2.21238281 38.20980469 1.42476562 37.41960937 0.61328125 36.60546875 C-0.84218629 35.15435238 -2.3082621 33.71299735 -3.8125 32.3125 C-5 31 -5 31 -5 29 C-6.24716797 29.34224609 -6.24716797 29.34224609 -7.51953125 29.69140625 C-8.60621094 29.97886719 -9.69289062 30.26632813 -10.8125 30.5625 C-12.43091797 30.99755859 -12.43091797 30.99755859 -14.08203125 31.44140625 C-17 32 -17 32 -20 31 C-19.56945312 30.32195312 -19.13890625 29.64390625 -18.6953125 28.9453125 C-17.0153166 25.92800644 -15.77654437 23.37351242 -15 20 C-16.09226184 16.85921596 -17.52705292 14.6522311 -19.51171875 11.99609375 C-21 10 -21 10 -21 8 C-16.71 8.66 -12.42 9.32 -8 10 C-6.2984375 7.8034375 -6.2984375 7.8034375 -4.5625 5.5625 C-1.125 1.125 -1.125 1.125 0 0 Z M-2 9 C-2.556875 9.825 -3.11375 10.65 -3.6875 11.5 C-6 14 -6 14 -9.25 14.3125 C-10.1575 14.209375 -11.065 14.10625 -12 14 C-11.814375 15.051875 -11.62875 16.10375 -11.4375 17.1875 C-11.04920669 20.57119882 -11.11752515 22.76425888 -12 26 C-11.13375 25.7525 -10.2675 25.505 -9.375 25.25 C-5.01140688 24.92677088 -3.3658276 26.35542117 0 29 C0 26.69 0 24.38 0 22 C1.98 21.34 3.96 20.68 6 20 C5.67 19.34 5.34 18.68 5 18 C2.47266765 17.34444881 2.47266765 17.34444881 0 17 C-0.33 14.36 -0.66 11.72 -1 9 C-1.33 9 -1.66 9 -2 9 Z " fill="#88853F" transform="translate(202,205)"/>
<path d="M0 0 C-0.33 1.32 -0.66 2.64 -1 4 C-2.65 4.33 -4.3 4.66 -6 5 C-5.979375 5.94875 -5.95875 6.8975 -5.9375 7.875 C-6 11 -6 11 -7 13 C-8.11375 13.020625 -9.2275 13.04125 -10.375 13.0625 C-15.92380485 13.59565918 -19.01283082 17.11117992 -23.07421875 20.64453125 C-30.48859343 26.61364732 -41.27318666 32 -51 32 C-51.0825 33.093125 -51.165 34.18625 -51.25 35.3125 C-52 39 -52 39 -53.875 41 C-56 42 -56 42 -59 41 C-58.071875 40.071875 -58.071875 40.071875 -57.125 39.125 C-54.61186719 35.42921645 -54.25096417 32.58300143 -53.78515625 28.20703125 C-53 26 -53 26 -50.76171875 24.78515625 C-48.09770494 24.0277775 -45.43787523 23.29303917 -42.75 22.625 C-38.1765771 21.41821046 -34.0322537 19.82389103 -29.77734375 17.76953125 C-28 17 -28 17 -26 17 C-25.89042969 16.37351562 -25.78085938 15.74703125 -25.66796875 15.1015625 C-25.43013672 13.87566406 -25.43013672 13.87566406 -25.1875 12.625 C-25.03667969 11.81289062 -24.88585937 11.00078125 -24.73046875 10.1640625 C-24 8 -24 8 -21 6 C-18.9375 6.1875 -18.9375 6.1875 -17 7 C-16.34 7.99 -15.68 8.98 -15 10 C-14.62488281 9.52949219 -14.24976563 9.05898437 -13.86328125 8.57421875 C-6.81573499 0 -6.81573499 0 0 0 Z " fill="#878339" transform="translate(177,82)"/>
<path d="M0 0 C1.875 0.25 1.875 0.25 4 1 C6.55904913 4.89992077 6.09804263 8.11822459 5.55078125 12.58203125 C4.80578282 15.85262717 3.46644886 17.75777377 1 20 C0.34 20 -0.32 20 -1 20 C-1.02578125 20.70125 -1.0515625 21.4025 -1.078125 22.125 C-1.52979972 29.68028626 -2.99033734 35.23792168 -7.75 41.1875 C-9.37877936 43.54923007 -9.23377359 45.19471697 -9 48 C-11.92288176 47.02570608 -12.94417958 46.08269691 -14.6875 43.5 C-15.06625188 39.25797894 -14.36339611 38.79686406 -11.8125 35.5625 C-6.30116125 28.43464653 -5 19.91112239 -5 11 C-5.97272675 9.64664105 -6.9739266 8.31337396 -8 7 C-8.6875 4.75 -8.6875 4.75 -9 3 C-6.03 3.495 -6.03 3.495 -3 4 C-2.01 2.68 -1.02 1.36 0 0 Z " fill="#898335" transform="translate(107,120)"/>
<path d="M0 0 C0 1.32 0 2.64 0 4 C-1.65 4.66 -3.3 5.32 -5 6 C-4.38511719 6.02578125 -3.77023438 6.0515625 -3.13671875 6.078125 C3.45901639 6.54098361 3.45901639 6.54098361 6.0625 8.75 C7.20321784 11.48772283 7.51368111 13.0646794 7 16 C3.81679244 20.63012008 -1.89502086 23.00992339 -7 25 C-11.20824591 25.61087441 -12.94859143 25.7747221 -16.375 23.25 C-17.94785432 21.07220172 -18.62376963 19.63361256 -19 17 C-17.35 16.34 -15.7 15.68 -14 15 C-13.67 16.32 -13.34 17.64 -13 19 C-8.0569398 18.50569398 -4.25023806 17.63109975 0 15 C0.33 14.01 0.66 13.02 1 12 C-0.15628906 12.01740234 -0.15628906 12.01740234 -1.3359375 12.03515625 C-2.84027344 12.04869141 -2.84027344 12.04869141 -4.375 12.0625 C-5.37273437 12.07410156 -6.37046875 12.08570312 -7.3984375 12.09765625 C-10 12 -10 12 -12 11 C-12.375 7.75 -12.375 7.75 -12 4 C-8.58651087 1.05198666 -4.45506602 -2.22753301 0 0 Z " fill="#8C833B" transform="translate(120,57)"/>
<path d="M0 0 C0.96808594 0.03738281 1.93617188 0.07476562 2.93359375 0.11328125 C3.90425781 0.13777344 4.87492188 0.16226563 5.875 0.1875 C8.37109375 0.42578125 8.37109375 0.42578125 10.37109375 1.42578125 C10.37109375 4.39578125 10.37109375 7.36578125 10.37109375 10.42578125 C12.68109375 11.08578125 14.99109375 11.74578125 17.37109375 12.42578125 C18.03109375 9.45578125 18.69109375 6.48578125 19.37109375 3.42578125 C21.35109375 4.08578125 23.33109375 4.74578125 25.37109375 5.42578125 C24.05109375 9.71578125 22.73109375 14.00578125 21.37109375 18.42578125 C17.97271332 17.83384407 14.57790105 17.22778718 11.18359375 16.61328125 C10.22388672 16.44763672 9.26417969 16.28199219 8.27539062 16.11132812 C-1.07784231 14.39602935 -1.07784231 14.39602935 -4.62890625 11.42578125 C-5.67813765 7.81904831 -6.25374276 5.62038394 -4.4765625 2.22265625 C-2.62890625 0.42578125 -2.62890625 0.42578125 0 0 Z M0.37109375 5.42578125 C0.37109375 6.74578125 0.37109375 8.06578125 0.37109375 9.42578125 C1.69109375 9.09578125 3.01109375 8.76578125 4.37109375 8.42578125 C4.37109375 7.43578125 4.37109375 6.44578125 4.37109375 5.42578125 C3.05109375 5.42578125 1.73109375 5.42578125 0.37109375 5.42578125 Z " fill="#8A8336" transform="translate(194.62890625,45.57421875)"/>
<path d="M0 0 C-0.52695414 4.57530025 -2.32928506 7.16039976 -5.0625 10.8125 C-11.97566092 20.37633175 -17.13635241 31.01972312 -21.2109375 42.08203125 C-22 44 -22 44 -24 47 C-24 45.02 -24 43.04 -24 41 C-24.99 40.67 -25.98 40.34 -27 40 C-25.17098282 28.33732574 -17.64812322 14.92281043 -10 6 C-9.29875 4.9275 -8.5975 3.855 -7.875 2.75 C-5.26206214 -1.08230886 -4.23740561 -1.27122168 0 0 Z " fill="#12A65A" transform="translate(76,92)"/>
<path d="M0 0 C2.53315831 1.13623218 4.6618459 2.47304222 7 4 C6.41372717 7.93438516 5.22416523 10.77930831 3.1875 14.1875 C2.68605469 15.04730469 2.18460938 15.90710938 1.66796875 16.79296875 C-0.10799357 19.14289547 -1.23961597 20.04552537 -4 21 C-8.26284248 20.73357234 -10.80198175 19.82901615 -14 17 C-13.505 15.515 -13.505 15.515 -13 14 C-10.69 14.33 -8.38 14.66 -6 15 C-7.2684375 13.700625 -7.2684375 13.700625 -8.5625 12.375 C-10.69195308 9.82327577 -11 9.30382751 -11 5.8125 C-8.86513933 -0.19179563 -6.29180449 -0.73404386 0 0 Z M-3 5 C-3.99 5.495 -3.99 5.495 -5 6 C-5 6.99 -5 7.98 -5 9 C-4.01 9.33 -3.02 9.66 -2 10 C-1.34 8.68 -0.68 7.36 0 6 C-0.99 5.67 -1.98 5.34 -3 5 Z " fill="#8D8534" transform="translate(250,62)"/>
<path d="M0 0 C3 1 3 1 4 3 C4.72597592 7.05061566 4.99659734 10.5680758 2.578125 14.04296875 C0.79867559 15.82622041 -1.03160147 17.42956031 -3 19 C-3.99 19.8971875 -3.99 19.8971875 -5 20.8125 C-7.8422212 22.50006884 -10.81053125 23.20263281 -14 24 C-14.8125 22.3125 -14.8125 22.3125 -15 20 C-12.53973429 17.12969001 -10.14510786 15.09673857 -7 13 C-7.680625 11.948125 -8.36125 10.89625 -9.0625 9.8125 C-10.6356595 7.09672991 -11.02512513 6.29522026 -10.75 3.0625 C-10.5025 2.381875 -10.255 1.70125 -10 1 C-6.73045798 1.56371414 -5.17424117 2.49962266 -3 5 C-2.01 3.35 -1.02 1.7 0 0 Z " fill="#8C8336" transform="translate(234,208)"/>
<path d="M0 0 C1.65 0 3.3 0 5 0 C6.15957207 3.47871621 5.77456651 4.34219645 4.5625 7.6875 C4.27503906 8.49574219 3.98757812 9.30398437 3.69140625 10.13671875 C3.46324219 10.75160156 3.23507813 11.36648437 3 12 C3.99 12 4.98 12 6 12 C6.19335938 11.38511719 6.38671875 10.77023438 6.5859375 10.13671875 C6.84632813 9.32847656 7.10671875 8.52023438 7.375 7.6875 C7.63023437 6.88699219 7.88546875 6.08648437 8.1484375 5.26171875 C9 3 9 3 11 0 C13.475 0.495 13.475 0.495 16 1 C14.79662881 7.89203498 12.67864914 13.06080693 9 19 C3.55123997 17.27933894 -1.71169451 15.15294651 -7 13 C-7 11.68 -7 10.36 -7 9 C-6.37609375 8.91878906 -5.7521875 8.83757813 -5.109375 8.75390625 C-2.8507553 8.20570556 -2.8507553 8.20570556 -1.953125 6.15234375 C-1.60507813 5.05599609 -1.60507813 5.05599609 -1.25 3.9375 C-1.00765625 3.20402344 -0.7653125 2.47054687 -0.515625 1.71484375 C-0.34546875 1.14894531 -0.1753125 0.58304688 0 0 Z " fill="#898333" transform="translate(226,52)"/>
<path d="M0 0 C1.35439668 2.70879335 1.06501451 5.00933268 1 8 C0.38125 8.04125 -0.2375 8.0825 -0.875 8.125 C-1.57625 8.41375 -2.2775 8.7025 -3 9 C-4.3045656 11.99615946 -4.3045656 11.99615946 -5 15 C-5.66 15 -6.32 15 -7 15 C-7.99 16.98 -8.98 18.96 -10 21 C-10.99 20.01 -11.98 19.02 -13 18 C-13.99 18.99 -14.98 19.98 -16 21 C-16.99 20.67 -17.98 20.34 -19 20 C-18.525625 19.2575 -18.05125 18.515 -17.5625 17.75 C-15.9368975 15.17532911 -15.9368975 15.17532911 -15.4375 12.75 C-15.293125 12.1725 -15.14875 11.595 -15 11 C-14.34 10.67 -13.68 10.34 -13 10 C-12.67 9.01 -12.34 8.02 -12 7 C-11.01 6.34 -10.02 5.68 -9 5 C-8.63837971 3.67405895 -8.30271961 2.34061543 -8 1 C-5.29120665 -0.35439668 -2.99066732 -0.06501451 0 0 Z " fill="#888435" transform="translate(198,161)"/>
<path d="M0 0 C2.95954666 0.12314052 5.91353555 0.0951263 8.875 0.0625 C10.050625 0.05573242 10.050625 0.05573242 11.25 0.04882812 C13.16670014 0.03714093 15.08336048 0.01920908 17 0 C17 0.66 17 1.32 17 2 C12.90137769 3.39527568 9.99991093 4.07005309 5.6875 3.625 C1.19651783 3.46406037 -0.80683959 5.07967446 -4.1875 7.9375 C-4.96480469 8.66839844 -5.74210937 9.39929688 -6.54296875 10.15234375 C-9.43818255 12.32950771 -11.40126885 12.84569756 -15 13 C-15.66 12.34 -16.32 11.68 -17 11 C-16.31292969 10.68546875 -15.62585938 10.3709375 -14.91796875 10.046875 C-14.01691406 9.61890625 -13.11585938 9.1909375 -12.1875 8.75 C-11.29417969 8.33234375 -10.40085938 7.9146875 -9.48046875 7.484375 C-6.89071669 5.93460211 -5.61819166 4.51599234 -4 2 C-7.97791388 3.5424564 -11.24482064 5.0725041 -14.625 7.6875 C-17.03763147 9.50650431 -17.8239392 9.98127013 -20.9375 10.3125 C-21.9584375 10.1578125 -21.9584375 10.1578125 -23 10 C-21.74405788 7.48811576 -20.7692029 7.2709532 -18.25 6.125 C-14.7572924 4.45674789 -11.98776402 2.4755759 -9 0 C-5.42042738 -1.19319087 -3.70294263 -0.62288478 0 0 Z " fill="#84834E" transform="translate(147,133)"/>
<path d="M0 0 C1.32 0.66 2.64 1.32 4 2 C3.67 10.91 3.34 19.82 3 29 C2.67 29 2.34 29 2 29 C1.67 24.05 1.34 19.1 1 14 C0.67 14 0.34 14 0 14 C-0.33 24.23 -0.66 34.46 -1 45 C-1.33 45 -1.66 45 -2 45 C-3.06539228 38.02807294 -3.18347391 31.17066427 -3.1875 24.125 C-3.19974609 23.00480469 -3.21199219 21.88460937 -3.22460938 20.73046875 C-3.23642695 13.97869443 -2.88943806 7.51921583 -1 1 C-0.67 0.67 -0.34 0.34 0 0 Z " fill="#DA091D" transform="translate(5,151)"/>
<path d="M0 0 C3.74433397 0.21947251 4.85711187 0.84575351 7.45703125 3.65234375 C8.2563797 4.73707941 9.04125555 5.83260571 9.8125 6.9375 C10.21919922 7.48857422 10.62589844 8.03964844 11.04492188 8.60742188 C14 12.69486607 14 12.69486607 14 15 C13.01 15 12.02 15 11 15 C12.1678266 18.81413002 12.1678266 18.81413002 15.125 21.3125 C15.74375 21.539375 16.3625 21.76625 17 22 C16.01 22.33 15.02 22.66 14 23 C13.67 23.66 13.34 24.32 13 25 C12.57589844 24.32195312 12.15179688 23.64390625 11.71484375 22.9453125 C8.08067513 17.17856582 4.3283403 11.60841069 0.1875 6.19140625 C-1 4 -1 4 -0.6875 1.71484375 C-0.3471875 0.86599609 -0.3471875 0.86599609 0 0 Z " fill="#368460" transform="translate(280,90)"/>
<path d="M0 0 C4.62 0 9.24 0 14 0 C13.67 1.32 13.34 2.64 13 4 C15.31 4 17.62 4 20 4 C20 6.31 20 8.62 20 11 C19.55140625 10.34515625 19.1028125 9.6903125 18.640625 9.015625 C14.58841752 5.92251988 10.6960438 6.56989196 5.75 6.75 C4.34621094 6.77707031 4.34621094 6.77707031 2.9140625 6.8046875 C0.60832985 6.85174327 -1.69530945 6.91746287 -4 7 C-3.67 6.34 -3.34 5.68 -3 5 C-2.01 5 -1.02 5 0 5 C0 3.35 0 1.7 0 0 Z " fill="#868134" transform="translate(221,201)"/>
<path d="M0 0 C0.99 0 1.98 0 3 0 C3.36005892 4.64350542 3.69929243 9.28788756 4.01928711 13.93432617 C4.13107849 15.51481941 4.24855715 17.09492105 4.37182617 18.67456055 C4.54801256 20.94501109 4.70371237 23.21608343 4.85546875 25.48828125 C4.91470016 26.19463211 4.97393158 26.90098297 5.03495789 27.6287384 C5.33542868 32.55691778 5.33542868 32.55691778 3.5090332 34.96948242 C2.76206177 35.47958862 2.76206177 35.47958862 2 36 C2 35.34 2 34.68 2 34 C1.34 34 0.68 34 0 34 C0 22.78 0 11.56 0 0 Z " fill="#C8030F" transform="translate(4,164)"/>
<path d="M0 0 C0.66 0 1.32 0 2 0 C1.07042945 5.49831088 -0.69572793 10.4660368 -4 15 C-7.8125 16.125 -7.8125 16.125 -11 16 C-11.66 14.68 -12.32 13.36 -13 12 C-14.65 12 -16.3 12 -18 12 C-18.33 11.34 -18.66 10.68 -19 10 C-17.38007835 9.13624104 -15.75388139 8.28424146 -14.125 7.4375 C-12.76761719 6.72400391 -12.76761719 6.72400391 -11.3828125 5.99609375 C-10.59648437 5.66738281 -9.81015625 5.33867188 -9 5 C-8.34 5.33 -7.68 5.66 -7 6 C-7.33 7.32 -7.66 8.64 -8 10 C-6.68 10 -5.36 10 -4 10 C-3.79503906 9.36191406 -3.59007812 8.72382812 -3.37890625 8.06640625 C-3.10949219 7.24011719 -2.84007812 6.41382812 -2.5625 5.5625 C-2.29566406 4.73878906 -2.02882812 3.91507812 -1.75390625 3.06640625 C-1 1 -1 1 0 0 Z " fill="#858241" transform="translate(197,85)"/>
<path d="M0 0 C2.25 0.25 2.25 0.25 4 1 C3.47515308 5.55700425 1.68492697 8.192874 -1.0625 11.8125 C-1.79597656 12.78832031 -2.52945313 13.76414062 -3.28515625 14.76953125 C-4.13400391 15.87361328 -4.13400391 15.87361328 -5 17 C-5.99 16.67 -6.98 16.34 -8 16 C-10.67676547 17.37249963 -10.67676547 17.37249963 -13 19 C-11.64166972 15.24105631 -9.93202341 12.19654835 -7.625 8.9375 C-7.03976563 8.10089844 -6.45453125 7.26429687 -5.8515625 6.40234375 C-4.03453228 4.04480453 -2.24020869 1.96132557 0 0 Z " fill="#398563" transform="translate(72,91)"/>
<path d="M0 0 C1.2065625 0.0309375 1.2065625 0.0309375 2.4375 0.0625 C2.46439449 3.02089355 2.48428741 5.97904427 2.5 8.9375 C2.50837891 9.77925781 2.51675781 10.62101562 2.52539062 11.48828125 C2.52861328 12.29394531 2.53183594 13.09960938 2.53515625 13.9296875 C2.54039307 14.67331543 2.54562988 15.41694336 2.55102539 16.18310547 C2.4375 18.0625 2.4375 18.0625 1.4375 20.0625 C-1.0375 19.0725 -1.0375 19.0725 -3.5625 18.0625 C-3.58934312 15.24993719 -3.60926188 12.43762759 -3.625 9.625 C-3.63337891 8.82255859 -3.64175781 8.02011719 -3.65039062 7.19335938 C-3.6590143 5.14954779 -3.6147815 3.10566098 -3.5625 1.0625 C-2.5625 0.0625 -2.5625 0.0625 0 0 Z " fill="#8A8539" transform="translate(177.5625,38.9375)"/>
<path d="M0 0 C0.66 0 1.32 0 2 0 C2.33 0.99 2.66 1.98 3 3 C3.66 3.33 4.32 3.66 5 4 C5.33 3.01 5.66 2.02 6 1 C6.66 2.32 7.32 3.64 8 5 C8.66 5 9.32 5 10 5 C10 4.34 10 3.68 10 3 C10.99 3 11.98 3 13 3 C12.3125 4.9375 12.3125 4.9375 11 7 C8.375 7.75 8.375 7.75 6 8 C6.474375 8.721875 6.94875 9.44375 7.4375 10.1875 C8.94152903 12.89475226 9.56599182 14.96194275 10 18 C9.34 18 8.68 18 8 18 C7.67 16.68 7.34 15.36 7 14 C5.35 14.66 3.7 15.32 2 16 C2 15.01 2 14.02 2 13 C0.02 13.66 -1.96 14.32 -4 15 C-3.3125 13.0625 -3.3125 13.0625 -2 11 C0.625 10.25 0.625 10.25 3 10 C2.2575 8.63875 2.2575 8.63875 1.5 7.25 C0 4 0 4 0 0 Z " fill="#898950" transform="translate(138,289)"/>
<path d="M0 0 C1.1875 1.625 1.1875 1.625 2 4 C0.625 7.25 0.625 7.25 -1 10 C1.31 10.33 3.62 10.66 6 11 C6.33 11.99 6.66 12.98 7 14 C4.525 13.505 4.525 13.505 2 13 C1.67 14.32 1.34 15.64 1 17 C0.34 17 -0.32 17 -1 17 C-1 16.01 -1 15.02 -1 14 C-1.99 14.495 -1.99 14.495 -3 15 C-3.65213292 17.02463255 -3.65213292 17.02463255 -4 19 C-4.66 19 -5.32 19 -6 19 C-5.125 12.25 -5.125 12.25 -4 10 C-6.31 9.01 -8.62 8.02 -11 7 C-11 6.34 -11 5.68 -11 5 C-8.83125748 5.50603992 -7.00032373 5.99983813 -5 7 C-5.33 5.68 -5.66 4.36 -6 3 C-5.01 3 -4.02 3 -3 3 C-3 3.66 -3 4.32 -3 5 C-2.34 5 -1.68 5 -1 5 C-0.67 3.35 -0.34 1.7 0 0 Z " fill="#878854" transform="translate(239,281)"/>
<path d="M0 0 C0.66 0.33 1.32 0.66 2 1 C2 2.32 2 3.64 2 5 C3.32 5.33 4.64 5.66 6 6 C6.36625971 10.51720311 6.36625971 10.51720311 4.625 12.8125 C3 14 3 14 1 14 C1 14.66 1 15.32 1 16 C-0.65 15.67 -2.3 15.34 -4 15 C-4.33 14.01 -4.66 13.02 -5 12 C-3.68 11.67 -2.36 11.34 -1 11 C-2.64079242 9.35920758 -4.77768765 9.39887658 -7 9 C-7.33 8.01 -7.66 7.02 -8 6 C-6.68 6 -5.36 6 -4 6 C-4 5.34 -4 4.68 -4 4 C-3.01 4 -2.02 4 -1 4 C-0.67 2.68 -0.34 1.36 0 0 Z M1 7 C0.67 7.66 0.34 8.32 0 9 C0.66 9 1.32 9 2 9 C1.67 8.34 1.34 7.68 1 7 Z " fill="#8A8744" transform="translate(210,143)"/>
<path d="M0 0 C0.66 0.33 1.32 0.66 2 1 C2 10.57 2 20.14 2 30 C0.02 30.99 0.02 30.99 -2 32 C-2.04946866 27.92492428 -2.08575189 23.84996503 -2.10986328 19.7746582 C-2.1199157 18.38855952 -2.1335597 17.00248201 -2.15087891 15.61645508 C-2.17515952 13.6233025 -2.18542031 11.62999467 -2.1953125 9.63671875 C-2.20578613 8.43748779 -2.21625977 7.23825684 -2.22705078 6.00268555 C-2 3 -2 3 0 0 Z " fill="#BD000C" transform="translate(343,161)"/>
<path d="M0 0 C4.29951803 1.59241408 6.39671947 4.35540725 9 8 C8.67 8.99 8.34 9.98 8 11 C3.25 10.125 3.25 10.125 1 9 C1 9.66 1 10.32 1 11 C0.34 11 -0.32 11 -1 11 C-1 10.34 -1 9.68 -1 9 C-1.99 8.67 -2.98 8.34 -4 8 C-4.33 7.01 -4.66 6.02 -5 5 C-3.35 3.35 -1.7 1.7 0 0 Z " fill="#878236" transform="translate(223,189)"/>
<path d="M0 0 C0.66 0 1.32 0 2 0 C2.50692692 1.5811292 3.00526443 3.16501383 3.5 4.75 C3.7784375 5.63171875 4.056875 6.5134375 4.34375 7.421875 C5 10 5 10 5 14 C4.34 14 3.68 14 3 14 C2.67 11.69 2.34 9.38 2 7 C1.34 7 0.68 7 0 7 C-0.99 9.97 -1.98 12.94 -3 16 C-3.99 16 -4.98 16 -6 16 C-6.66 11.05 -7.32 6.1 -8 1 C-7.34 1 -6.68 1 -6 1 C-5.67 3.31 -5.34 5.62 -5 8 C-1.39345961 5.59563974 -1.14547068 4.05320393 0 0 Z " fill="#868853" transform="translate(213,291)"/>
<path d="M0 0 C0.66 0 1.32 0 2 0 C3.7479503 5.24385089 4.19392201 9.47322267 4 15 C3.34 15 2.68 15 2 15 C1.34 13.02 0.68 11.04 0 9 C-1.89213369 11.38573379 -3.02391783 13.07175348 -4 16 C-4.66 16 -5.32 16 -6 16 C-7.00109515 12.68929162 -7.10356134 9.69915231 -7.0625 6.25 C-7.05347656 5.26515625 -7.04445312 4.2803125 -7.03515625 3.265625 C-7.02355469 2.51796875 -7.01195312 1.7703125 -7 1 C-6.01 1.495 -6.01 1.495 -5 2 C-5 3.98 -5 5.96 -5 8 C-2.21611025 6.29374499 -1.14615794 5.52373261 -0.25 2.3125 C-0.1675 1.549375 -0.085 0.78625 0 0 Z " fill="#868655" transform="translate(200,293)"/>
<path d="M0 0 C0.66 0.66 1.32 1.32 2 2 C3.98821313 2.39764263 5.98944339 2.73775349 8 3 C5.97263306 5.3277176 4.4668261 6.8204515 1.5625 7.9375 C-1.77721641 8.0189565 -3.23242992 6.79892055 -6 5 C-8.69254991 4.29329272 -8.69254991 4.29329272 -11 4 C-10 1 -10 1 -8.3125 -0.25 C-5.21117147 -1.25583628 -3.1253275 -0.81530283 0 0 Z " fill="#878340" transform="translate(221,100)"/>
<path d="M0 0 C0.66 0 1.32 0 2 0 C2.33 1.98 2.66 3.96 3 6 C3.763125 5.649375 4.52625 5.29875 5.3125 4.9375 C8 4 8 4 11 5 C10.01 5.66 9.02 6.32 8 7 C5.94057212 8.6775152 5.09934519 9.47308089 4.6015625 12.11328125 C4.5944974 14.56554164 4.5944974 14.56554164 5 18 C4.34 18 3.68 18 3 18 C2.67 16.02 2.34 14.04 2 12 C0.8553125 12.495 0.8553125 12.495 -0.3125 13 C-3 14 -3 14 -6 14 C-6 13.34 -6 12.68 -6 12 C-1.61538462 9 -1.61538462 9 1 9 C0.67 6.03 0.34 3.06 0 0 Z " fill="#878952" transform="translate(115,280)"/>
<path d="M0 0 C1.65 0.33 3.3 0.66 5 1 C5.33 1.99 5.66 2.98 6 4 C5.02616054 5.68208635 4.02304948 7.34738161 3 9 C2.29329272 11.69254991 2.29329272 11.69254991 2 14 C0.35 14 -1.3 14 -3 14 C-3.625 11.6875 -3.625 11.6875 -4 9 C-3.34 8.01 -2.68 7.02 -2 6 C-1.29835358 4.01200182 -0.62627128 2.01301483 0 0 Z " fill="#8B8B4F" transform="translate(129,287)"/>
<path d="M0 0 C0.33 0 0.66 0 1 0 C1.66 3.3 2.32 6.6 3 10 C3.66 10 4.32 10 5 10 C4.34 13.96 3.68 17.92 3 22 C1.35 22 -0.3 22 -2 22 C-1.40711812 14.65835626 -0.761788 7.32613141 0 0 Z " fill="#C90C23" transform="translate(340,187)"/>
<path d="M0 0 C3 1 3 1 3.94921875 2.85546875 C5.37868052 7.37075277 6.3692425 11.19984755 6 16 C5.34 16 4.68 16 4 16 C3.34 12.04 2.68 8.08 2 4 C1.34 4 0.68 4 0 4 C-0.20496094 4.62648438 -0.40992188 5.25296875 -0.62109375 5.8984375 C-0.89050781 6.71570313 -1.15992188 7.53296875 -1.4375 8.375 C-1.70433594 9.18710937 -1.97117188 9.99921875 -2.24609375 10.8359375 C-3 13 -3 13 -4 15 C-4.66 15 -5.32 15 -6 15 C-5.61471495 8.83543922 -3.52913975 5.01372252 0 0 Z " fill="#858753" transform="translate(157,293)"/>
<path d="M0 0 C2.25 0 2.25 0 5 1 C7.68511121 4.17995043 9.13048791 7.34203596 8.80078125 11.53125 C8.30800637 13.73999983 7.73315895 15.85996847 7 18 C4.16625119 14.79663178 3.4794463 12.21912747 3 8 C3.66 7.67 4.32 7.34 5 7 C3.68 6.67 2.36 6.34 1 6 C0.67 4.02 0.34 2.04 0 0 Z " fill="#19985A" transform="translate(291,105)"/>
<path d="M0 0 C0 0.66 0 1.32 0 2 C-1.65 2.33 -3.3 2.66 -5 3 C-3.68 4.65 -2.36 6.3 -1 8 C-1.99 8.99 -2.98 9.98 -4 11 C-1.525 11.99 -1.525 11.99 1 13 C1 13.33 1 13.66 1 14 C-5.52307692 14.36923077 -5.52307692 14.36923077 -7.9375 12.5 C-8.288125 12.005 -8.63875 11.51 -9 11 C-8.62875 10.4225 -8.2575 9.845 -7.875 9.25 C-6.70833333 7 -6.70833333 7 -7.875 4.75 C-8.24625 4.1725 -8.6175 3.595 -9 3 C-5.55930376 0.70620251 -4.27709699 0 0 0 Z " fill="#868856" transform="translate(190,295)"/>
<path d="M0 0 C0.33 0.99 0.66 1.98 1 3 C-0.32 3.99 -1.64 4.98 -3 6 C-1.68 6.33 -0.36 6.66 1 7 C0.34 8.65 -0.32 10.3 -1 12 C0.65 12 2.3 12 4 12 C4.33 12.66 4.66 13.32 5 14 C2.04335481 15.4783226 -0.74229737 15.06032783 -4 15 C-4.5534764 12.92446352 -5 11.15634036 -5 9 C-5.63474075 7.65117592 -6.29848848 6.3153341 -7 5 C-2.25 1.125 -2.25 1.125 0 0 Z " fill="#868854" transform="translate(225,287)"/>
<path d="M0 0 C-1.20381448 2.49361571 -2.45428722 4.68143083 -4 7 C-3.01 6.67 -2.02 6.34 -1 6 C-0.34 6.33 0.32 6.66 1 7 C0.67 8.32 0.34 9.64 0 11 C1.98 11 3.96 11 6 11 C6 11.66 6 12.32 6 13 C3.03 13.66 0.06 14.32 -3 15 C-4 12 -4 12 -3 9 C-4.32 8.67 -5.64 8.34 -7 8 C-6.44414399 4.1090079 -4.34122117 0 0 0 Z " fill="#868858" transform="translate(251,276)"/>
<path d="M0 0 C0.33 0 0.66 0 1 0 C1.04954963 5.0353859 1.08579037 10.0706289 1.10986328 15.10620117 C1.11990208 16.81814039 1.13353595 18.53006255 1.15087891 20.24194336 C1.17522073 22.70691142 1.18650438 25.17165215 1.1953125 27.63671875 C1.20563507 28.39836838 1.21595764 29.16001801 1.22659302 29.94474792 C1.22746036 34.08082741 0.85778997 37.2812059 -1 41 C-1.66 40.67 -2.32 40.34 -3 40 C-3 38.02 -3 36.04 -3 34 C-2.34 34 -1.68 34 -1 34 C-1.01160156 32.80246094 -1.02320313 31.60492188 -1.03515625 30.37109375 C-1.10231552 20.19331689 -0.84918299 10.14470396 0 0 Z " fill="#D90518" transform="translate(345,157)"/>
<path d="M0 0 C0.33 0.99 0.66 1.98 1 3 C1.83333333 5.16666667 1.83333333 5.16666667 4 6 C2.35 7.98 0.7 9.96 -1 12 C-2.65 11.67 -4.3 11.34 -6 11 C-5.55530671 5.96014269 -3.28656638 3.62365012 0 0 Z " fill="#239E62" transform="translate(285,254)"/>
<path d="M0 0 C1.32 0.66 2.64 1.32 4 2 C3.67 10.91 3.34 19.82 3 29 C2.67 29 2.34 29 2 29 C1.98541748 28.44538086 1.97083496 27.89076172 1.95581055 27.31933594 C1.88113103 24.79553758 1.78453975 22.27303346 1.6875 19.75 C1.66494141 18.87730469 1.64238281 18.00460938 1.61914062 17.10546875 C1.4228373 12.42988053 1.29899167 9.56720238 -2 6 C-1.58974359 1.58974359 -1.58974359 1.58974359 0 0 Z " fill="#D31D32" transform="translate(5,151)"/>
<path d="M0 0 C0.90878906 0.19916016 0.90878906 0.19916016 1.8359375 0.40234375 C7.87728368 1.67567364 13.84737892 2.50255404 20 3 C20 3.66 20 4.32 20 5 C16.94922847 6.52538577 13.88042 5.95600444 10.5625 5.75 C9.88123047 5.72292969 9.19996094 5.69585937 8.49804688 5.66796875 C5.54890419 5.48888271 3.45899803 5.33084215 1.02734375 3.578125 C0 2 0 2 0 0 Z " fill="#85854D" transform="translate(225,112)"/>
<path d="M0 0 C3.99910774 1.33303591 4.87727103 3.28108728 6.9921875 6.7890625 C8.4876655 10.06983982 8.37011842 12.44686315 8 16 C3.77927643 12.23149681 0.2434476 7.8605093 -0.25 2.0625 C-0.1675 1.381875 -0.085 0.70125 0 0 Z " fill="#868440" transform="translate(227,239)"/>
<path d="M0 0 C1.9375 0.625 1.9375 0.625 4 2 C5.19974793 6.29909676 5.08881153 10.55942374 5 15 C1.85022369 12.90014913 0.224447 11.75350063 -0.875 8.0625 C-0.9939262 5.14880818 -0.74355845 2.8089986 0 0 Z " fill="#828341" transform="translate(260,184)"/>
<path d="M0 0 C2.64 0 5.28 0 8 0 C8.66 1.65 9.32 3.3 10 5 C8.68 5.33 7.36 5.66 6 6 C6 6.66 6 7.32 6 8 C4.68 8 3.36 8 2 8 C0.23537317 4.91190305 0 3.76687864 0 0 Z M5 3 C6 5 6 5 6 5 Z " fill="#8C883E" transform="translate(220,150)"/>
<path d="M0 0 C0.99 0 1.98 0 3 0 C6.30386425 4.06629447 6.57219593 7.95191192 7 13 C6.01 13.495 6.01 13.495 5 14 C0.65757571 9.65757571 0.2555331 5.86448454 0 0 Z " fill="#89843C" transform="translate(129,184)"/>
<path d="M0 0 C1.9375 0.3125 1.9375 0.3125 4 1 C5 4 5 4 3.5625 7.1875 C2.7890625 8.5796875 2.7890625 8.5796875 2 10 C0.68 10 -0.64 10 -2 10 C-3.06351675 6.61608307 -3.21442982 5.4195366 -1.5625 2.1875 C-1.046875 1.465625 -0.53125 0.74375 0 0 Z " fill="#898337" transform="translate(109,140)"/>
<path d="M0 0 C3.96 1.98 3.96 1.98 8 4 C8 5.65 8 7.3 8 9 C4.84526281 8.64947365 3.1766466 8.13480924 0.625 6.1875 C0.08875 5.465625 -0.4475 4.74375 -1 4 C-0.67 2.68 -0.34 1.36 0 0 Z " fill="#888640" transform="translate(114,246)"/>
<path d="M0 0 C2.475 0.495 2.475 0.495 5 1 C5 1.99 5 2.98 5 4 C6.32 4.33 7.64 4.66 9 5 C8.67 6.32 8.34 7.64 8 9 C4.21304827 8.4590069 2.37254028 6.96567536 0 4 C0 2.68 0 1.36 0 0 Z " fill="#838342" transform="translate(120,224)"/>
<path d="M0 0 C2.39093152 2.39093152 2.25852924 3.11013946 2.4375 6.375 C2.76476679 10.15068905 3.37762416 12.14959148 6 15 C6 15.66 6 16.32 6 17 C2.24334088 15.79250243 0.47314931 13.4365152 -1.3828125 10.01953125 C-2.5063993 6.34298458 -1.24437175 3.5464595 0 0 Z " fill="#82814A" transform="translate(256,196)"/>
<path d="M0 0 C1.32 0 2.64 0 4 0 C3.67 3.63 3.34 7.26 3 11 C1.68 10.67 0.36 10.34 -1 10 C-1.02689216 8.52093108 -1.04634621 7.04172517 -1.0625 5.5625 C-1.07410156 4.73878906 -1.08570312 3.91507813 -1.09765625 3.06640625 C-1 1 -1 1 0 0 Z " fill="#85813F" transform="translate(85,150)"/>
<path d="M0 0 C0.86625 0.3403125 0.86625 0.3403125 1.75 0.6875 C1.5625 2.5 1.5625 2.5 0.75 4.6875 C-2.15696599 6.82947494 -3.60521088 7.6875 -7.25 7.6875 C-6.91753345 4.61218444 -6.61895244 3.06917494 -4.4375 0.8125 C-2.25 -0.3125 -2.25 -0.3125 0 0 Z " fill="#858240" transform="translate(144.25,88.3125)"/>
<path d="M0 0 C1.6254308 0.14095064 3.25034051 0.28792087 4.875 0.4375 C5.77992188 0.51871094 6.68484375 0.59992187 7.6171875 0.68359375 C10 1 10 1 12 2 C12 2.99 12 3.98 12 5 C8.70303895 6.09898702 7.59505097 5.87124444 4.3125 5.0625 C3.50425781 4.86785156 2.69601563 4.67320313 1.86328125 4.47265625 C1.24839844 4.31667969 0.63351563 4.16070312 0 4 C0 2.68 0 1.36 0 0 Z " fill="#888440" transform="translate(193,39)"/>
<path d="M0 0 C1.32 0.33 2.64 0.66 4 1 C3.8125 2.875 3.8125 2.875 3 5 C0.31742407 6.5225431 -1.24544717 7.12235992 -4.3125 6.625 C-4.869375 6.41875 -5.42625 6.2125 -6 6 C-5.34 4.68 -4.68 3.36 -4 2 C-2.68 2 -1.36 2 0 2 C0 1.34 0 0.68 0 0 Z " fill="#86803E" transform="translate(170,98)"/>
<path d="M0 0 C1.32 0.33 2.64 0.66 4 1 C5.15941038 4.47823115 4.70820884 6.45895578 4 10 C2.68 9.67 1.36 9.34 0 9 C0 6.03 0 3.06 0 0 Z " fill="#828144" transform="translate(250,184)"/>
<path d="M0 0 C0.33 1.32 0.66 2.64 1 4 C-1.97 5.32 -4.94 6.64 -8 8 C-8.66 6.68 -9.32 5.36 -10 4 C-8.71086513 3.32845067 -7.41859796 2.66291141 -6.125 2 C-5.40570313 1.62875 -4.68640625 1.2575 -3.9453125 0.875 C-2 0 -2 0 0 0 Z " fill="#898544" transform="translate(124,79)"/>
<path d="M0 0 C0.66 0.66 1.32 1.32 2 2 C1.77256695 4.95662966 1.38764062 6.55033688 -0.5625 8.8125 C-1.036875 9.204375 -1.51125 9.59625 -2 10 C-2.33 9.34 -2.66 8.68 -3 8 C-4.32 8.33 -5.64 8.66 -7 9 C-6.8125 7.1875 -6.8125 7.1875 -6 5 C-3.5 3.375 -3.5 3.375 -1 2 C-0.67 1.34 -0.34 0.68 0 0 Z " fill="#358C65" transform="translate(64,105)"/>
<path d="M0 0 C2 3 2 3 2 6 C1.01 6 0.02 6 -1 6 C-1 8.31 -1 10.62 -1 13 C-3.42130331 10.57869669 -3.52840504 9.19888623 -4.125 5.875 C-4.29257812 4.96492187 -4.46015625 4.05484375 -4.6328125 3.1171875 C-4.75398438 2.41851562 -4.87515625 1.71984375 -5 1 C-4.34 1.66 -3.68 2.32 -3 3 C-2.01 2.01 -1.02 1.02 0 0 Z " fill="#259D63" transform="translate(50,211)"/>
<path d="M0 0 C2.64 0.33 5.28 0.66 8 1 C8.33 2.32 8.66 3.64 9 5 C6.03 4.67 3.06 4.34 0 4 C0 2.68 0 1.36 0 0 Z " fill="#848242" transform="translate(208,108)"/>
<path d="M0 0 C1.2065625 0.0309375 1.2065625 0.0309375 2.4375 0.0625 C2.4375 0.7225 2.4375 1.3825 2.4375 2.0625 C1.7775 2.0625 1.1175 2.0625 0.4375 2.0625 C0.4375 2.7225 0.4375 3.3825 0.4375 4.0625 C1.4275 4.0625 2.4175 4.0625 3.4375 4.0625 C3.4375 4.7225 3.4375 5.3825 3.4375 6.0625 C0.7975 6.0625 -1.8425 6.0625 -4.5625 6.0625 C-3.48963568 0.08511307 -3.48963568 0.08511307 0 0 Z " fill="#868441" transform="translate(177.5625,60.9375)"/>
<path d="M0 0 C0.99 0.33 1.98 0.66 3 1 C2.67 2.32 2.34 3.64 2 5 C0.68 5 -0.64 5 -2 5 C-2.66 7.31 -3.32 9.62 -4 12 C-4.66 11.67 -5.32 11.34 -6 11 C-5.62671065 5.64951939 -4.0042343 3.49087093 0 0 Z " fill="#868347" transform="translate(158,175)"/>
<path d="M0 0 C1.65 0 3.3 0 5 0 C5.33 1.65 5.66 3.3 6 5 C4.35 5.33 2.7 5.66 1 6 C-0.0625 4.125 -0.0625 4.125 -1 2 C-0.67 1.34 -0.34 0.68 0 0 Z " fill="#868954" transform="translate(167,295)"/>
<path d="M0 0 C2.125 0.9375 2.125 0.9375 4 2 C3.67 3.65 3.34 5.3 3 7 C1.35 6.67 -0.3 6.34 -2 6 C-2 4.35 -2 2.7 -2 1 C-1.34 0.67 -0.68 0.34 0 0 Z " fill="#858A54" transform="translate(103,284)"/>
<path d="M0 0 C0.93423645 3.01031744 1.04449911 3.86650268 0 7 C1.32 7 2.64 7 4 7 C3.67 8.98 3.34 10.96 3 13 C2.67 12.01 2.34 11.02 2 10 C1.01 10 0.02 10 -1 10 C-1.66 10.66 -2.32 11.32 -3 12 C-2.68950274 10.56206608 -2.3765224 9.1246682 -2.0625 7.6875 C-1.88847656 6.88699219 -1.71445312 6.08648437 -1.53515625 5.26171875 C-1 3 -1 3 0 0 Z " fill="#2A9B66" transform="translate(304,214)"/>
<path d="M0 0 C1.45947705 0.06006078 2.91779272 0.1488689 4.375 0.25 C5.59316406 0.31960937 5.59316406 0.31960937 6.8359375 0.390625 C7.55007813 0.59171875 8.26421875 0.7928125 9 1 C9.66 2.32 10.32 3.64 11 5 C7.7 4.34 4.4 3.68 1 3 C0.67 2.01 0.34 1.02 0 0 Z " fill="#848347" transform="translate(261,173)"/>
<path d="M0 0 C1 3 1 3 0.22265625 5.04296875 C-0.16019531 5.75066406 -0.54304687 6.45835938 -0.9375 7.1875 C-1.31777344 7.90292969 -1.69804687 8.61835937 -2.08984375 9.35546875 C-2.54037109 10.16951172 -2.54037109 10.16951172 -3 11 C-3.99 11 -4.98 11 -6 11 C-5.38080922 9.53919067 -4.75443308 8.08142545 -4.125 6.625 C-3.77695313 5.81289062 -3.42890625 5.00078125 -3.0703125 4.1640625 C-2 2 -2 2 0 0 Z " fill="#838349" transform="translate(205,87)"/>
<path d="M0 0 C1.65 0 3.3 0 5 0 C5.33 1.32 5.66 2.64 6 4 C3.625 5.0625 3.625 5.0625 1 6 C0.34 5.67 -0.32 5.34 -1 5 C-0.67 3.35 -0.34 1.7 0 0 Z " fill="#868A54" transform="translate(167,304)"/>
<path d="M0 0 C2.5625 2.25 2.5625 2.25 5 5 C4.8125 7.3125 4.8125 7.3125 4 9 C2.68 9.33 1.36 9.66 0 10 C-0.99 8.35 -1.98 6.7 -3 5 C-2.34 5 -1.68 5 -1 5 C-1 5.66 -1 6.32 -1 7 C-0.01 6.34 0.98 5.68 2 5 C1.34 3.35 0.68 1.7 0 0 Z " fill="#3E946D" transform="translate(71,255)"/>
<path d="M0 0 C1.50433594 0.01353516 1.50433594 0.01353516 3.0390625 0.02734375 C3.80992187 0.03894531 4.58078125 0.05054688 5.375 0.0625 C5.375 1.0525 5.375 2.0425 5.375 3.0625 C1.085 3.0625 -3.205 3.0625 -7.625 3.0625 C-7.625 2.4025 -7.625 1.7425 -7.625 1.0625 C-4.98041621 -0.25979189 -2.94738699 -0.03427194 0 0 Z " fill="#84834A" transform="translate(150.625,187.9375)"/>
<path d="M0 0 C1.15518918 0.90484792 2.29885406 1.8244206 3.4375 2.75 C4.07558594 3.26046875 4.71367188 3.7709375 5.37109375 4.296875 C7.18810554 6.19667629 7.60423197 7.43586908 8 10 C4.20401451 8.50871999 2.28279601 6.34266559 0 3 C0 2.01 0 1.02 0 0 Z " fill="#848343" transform="translate(110,108)"/>
<path d="M0 0 C1.65 0 3.3 0 5 0 C5.33 0.99 5.66 1.98 6 3 C5.01 4.485 5.01 4.485 4 6 C2.68 5.67 1.36 5.34 0 5 C0 3.35 0 1.7 0 0 Z " fill="#88823C" transform="translate(231,233)"/>
<path d="M0 0 C2.375 0.3125 2.375 0.3125 5 1 C7 4 7 4 7 7 C4.20171644 6.61402985 3.1794116 6.19863427 1.25 4.0625 C0 2 0 2 0 0 Z " fill="#848048" transform="translate(102,233)"/>
<path d="M0 0 C1.58294782 -0.05437607 3.16644256 -0.09296271 4.75 -0.125 C5.63171875 -0.14820313 6.5134375 -0.17140625 7.421875 -0.1953125 C10.1135858 0.00860498 11.69904974 0.63448279 14 2 C14 2.33 14 2.66 14 3 C8.78020872 3.1799928 4.92737019 2.97094808 0 1 C0 0.67 0 0.34 0 0 Z " fill="#82814B" transform="translate(82,175)"/>
<path d="M0 0 C0.99 0 1.98 0 3 0 C2.49166802 3.76165664 1.8405007 5.50035938 -1 8 C-1.66 8.99 -2.32 9.98 -3 11 C-1.48648649 1.48648649 -1.48648649 1.48648649 0 0 Z " fill="#888547" transform="translate(150,150)"/>
<path d="M0 0 C-6.36363636 5 -6.36363636 5 -11 5 C-10 2 -10 2 -6.625 0.25 C-3 -1 -3 -1 0 0 Z " fill="#83844A" transform="translate(256,119)"/>
<path d="M0 0 C1.65 0 3.3 0 5 0 C4.67 1.98 4.34 3.96 4 6 C1.525 5.01 1.525 5.01 -1 4 C-0.67 2.68 -0.34 1.36 0 0 Z " fill="#868139" transform="translate(235,151)"/>
<path d="M0 0 C0.33 0.99 0.66 1.98 1 3 C-3.455 3.495 -3.455 3.495 -8 4 C-8 3.01 -8 2.02 -8 1 C-5.23735711 0.40267181 -2.83967231 0 0 0 Z " fill="#8A853F" transform="translate(221,141)"/>
<path d="M0 0 C1.46726798 3.81489674 0.43336419 6.29011622 -1 10 C-1.66 9.67 -2.32 9.34 -3 9 C-3.625 5.9375 -3.625 5.9375 -4 3 C-2.68 2.01 -1.36 1.02 0 0 Z " fill="#95893A" transform="translate(121,167)"/>
<path d="M0 0 C0 6 0 6 -1.3125 7.38671875 C-2.875 8.59114583 -4.4375 9.79557292 -6 11 C-5.55530671 5.96014269 -3.28656638 3.62365012 0 0 Z " fill="#3F8A69" transform="translate(285,254)"/>
<path d="M0 0 C1.65 0.33 3.3 0.66 5 1 C4.67 2.32 4.34 3.64 4 5 C2.35 4.67 0.7 4.34 -1 4 C-0.67 2.68 -0.34 1.36 0 0 Z " fill="#848044" transform="translate(110,212)"/>
<path d="M0 0 C1.65 0 3.3 0 5 0 C5.33 0.99 5.66 1.98 6 3 C5.67 3.66 5.34 4.32 5 5 C2.525 4.01 2.525 4.01 0 3 C0 2.01 0 1.02 0 0 Z " fill="#848143" transform="translate(252,162)"/>
<path d="M0 0 C0.99 0.33 1.98 0.66 3 1 C2.67 2.65 2.34 4.3 2 6 C0.35 5.67 -1.3 5.34 -3 5 C-2.01 3.35 -1.02 1.7 0 0 Z " fill="#08A956" transform="translate(287,253)"/>
<path d="M0 0 C2 0.25 2 0.25 4 1 C4.33 1.99 4.66 2.98 5 4 C3.35 4.33 1.7 4.66 0 5 C-0.5625 3.0625 -0.5625 3.0625 -1 1 C-0.67 0.67 -0.34 0.34 0 0 Z " fill="#848346" transform="translate(256,125)"/>
<path d="M0 0 C1.67542976 0.28604898 3.34385343 0.61781233 5 1 C4.67 1.99 4.34 2.98 4 4 C1.9375 4.6875 1.9375 4.6875 0 5 C-0.5625 3.0625 -0.5625 3.0625 -1 1 C-0.67 0.67 -0.34 0.34 0 0 Z " fill="#87813C" transform="translate(126,46)"/>
<path d="M0 0 C0.33 0.99 0.66 1.98 1 3 C2.32 3 3.64 3 5 3 C4.34 4.65 3.68 6.3 3 8 C2.34 7.01 1.68 6.02 1 5 C0.01 5 -0.98 5 -2 5 C-1.34 3.35 -0.68 1.7 0 0 Z " fill="#3B8E69" transform="translate(288,249)"/>
<path d="M0 0 C0.66 0.33 1.32 0.66 2 1 C1.38461538 6.53846154 1.38461538 6.53846154 -0.5625 8.875 C-1.2740625 9.431875 -1.2740625 9.431875 -2 10 C-2.66 9.34 -3.32 8.68 -4 8 C-3.525625 7.608125 -3.05125 7.21625 -2.5625 6.8125 C-0.64820367 4.59191626 -0.38733012 2.86624291 0 0 Z " fill="#02AB54" transform="translate(293,243)"/>
<path d="M0 0 C-3.6441774 2.4294516 -5.71241272 2.16179575 -10 2 C-10 1.34 -10 0.68 -10 0 C-6.42355152 -1.2380014 -3.66305234 -0.74926071 0 0 Z " fill="#83814C" transform="translate(141,148)"/>
<path d="M0 0 C1 2 1 2 0.25 5 C-1 8 -1 8 -4 10 C-3.43454163 6.04179141 -2.19097652 3.3340947 0 0 Z " fill="#269C61" transform="translate(293,241)"/>
<path d="M0 0 C1.65 0 3.3 0 5 0 C5 1.32 5 2.64 5 4 C3.35 4 1.7 4 0 4 C0 2.68 0 1.36 0 0 Z " fill="#858040" transform="translate(145,64)"/>
<path d="M0 0 C1.65 0 3.3 0 5 0 C5 1.32 5 2.64 5 4 C3.35 4 1.7 4 0 4 C0 2.68 0 1.36 0 0 Z " fill="#84823B" transform="translate(167,61)"/>
<path d="M0 0 C1.32 0 2.64 0 4 0 C3.6875 1.875 3.6875 1.875 3 4 C2.01 4.66 1.02 5.32 0 6 C-0.38218767 4.34385343 -0.71395102 2.67542976 -1 1 C-0.67 0.67 -0.34 0.34 0 0 Z " fill="#00A64E" transform="translate(45,204)"/>
<path d="M0 0 C0.66 0.66 1.32 1.32 2 2 C1.625 4.125 1.625 4.125 1 6 C-0.32 5.67 -1.64 5.34 -3 5 C-2.625 3.0625 -2.625 3.0625 -2 1 C-1.34 0.67 -0.68 0.34 0 0 Z " fill="#888544" transform="translate(229,156)"/>
<path d="M0 0 C1.65 0.33 3.3 0.66 5 1 C4.34 2.32 3.68 3.64 3 5 C1.68 4.67 0.36 4.34 -1 4 C-0.67 2.68 -0.34 1.36 0 0 Z " fill="#8C884E" transform="translate(246,109)"/>
<path d="M0 0 C0.66 0.66 1.32 1.32 2 2 C1.625 4.125 1.625 4.125 1 6 C-0.65 5.67 -2.3 5.34 -4 5 C-2.68 3.35 -1.36 1.7 0 0 Z " fill="#119D57" transform="translate(64,105)"/>
<path d="M0 0 C1.98 0.495 1.98 0.495 4 1 C3.67 2.32 3.34 3.64 3 5 C1.68 4.67 0.36 4.34 -1 4 C-0.67 2.68 -0.34 1.36 0 0 Z " fill="#858141" transform="translate(212,65)"/>
<path d="M0 0 C1.98 0.495 1.98 0.495 4 1 C3.67 2.32 3.34 3.64 3 5 C1.68 4.67 0.36 4.34 -1 4 C-0.67 2.68 -0.34 1.36 0 0 Z " fill="#868141" transform="translate(206,64)"/>
<path d="M0 0 C1.32 0 2.64 0 4 0 C4 1.32 4 2.64 4 4 C2.68 4.33 1.36 4.66 0 5 C-0.5625 3.0625 -0.5625 3.0625 -1 1 C-0.67 0.67 -0.34 0.34 0 0 Z " fill="#848245" transform="translate(162,61)"/>
<path d="M0 0 C1.485 0.99 1.485 0.99 3 2 C2.67 3.98 2.34 5.96 2 8 C1.34 8 0.68 8 0 8 C0 5.36 0 2.72 0 0 Z " fill="#898548" transform="translate(146,174)"/>
<path d="M0 0 C1.98 0.66 3.96 1.32 6 2 C5.34 2.66 4.68 3.32 4 4 C0.375 3.625 0.375 3.625 -3 3 C-2.01 2.67 -1.02 2.34 0 2 C0 1.34 0 0.68 0 0 Z " fill="#95904C" transform="translate(211,137)"/>
<path d="M0 0 C2.475 0.495 2.475 0.495 5 1 C5 2.32 5 3.64 5 5 C4.01 5.33 3.02 5.66 2 6 C1.34 4.02 0.68 2.04 0 0 Z " fill="#928C46" transform="translate(220,126)"/>
<path d="M0 0 C1.65 0 3.3 0 5 0 C4.67 2.31 4.34 4.62 4 7 C2.10786631 4.61426621 0.97608217 2.92824652 0 0 Z " fill="#209E60" transform="translate(294,116)"/>
<path d="M0 0 C0 1.32 0 2.64 0 4 C-1.32 4.33 -2.64 4.66 -4 5 C-4.33 3.68 -4.66 2.36 -5 1 C-3 0 -3 0 0 0 Z " fill="#86803D" transform="translate(144,65)"/>
<path d="M0 0 C2.97 0 5.94 0 9 0 C9 0.33 9 0.66 9 1 C7.35 1 5.7 1 4 1 C4 1.66 4 2.32 4 3 C3.34 3 2.68 3 2 3 C1.34 3.66 0.68 4.32 0 5 C0 3.35 0 1.7 0 0 Z " fill="#DC0E1F" transform="translate(187,4)"/>
<path d="M0 0 C1.32 0 2.64 0 4 0 C4.33 0.99 4.66 1.98 5 3 C3.35 3.33 1.7 3.66 0 4 C0 2.68 0 1.36 0 0 Z " fill="#8B853C" transform="translate(221,218)"/>
<path d="M0 0 C0.66 0 1.32 0 2 0 C2.33 2.31 2.66 4.62 3 7 C2.01 7 1.02 7 0 7 C0 4.69 0 2.38 0 0 Z " fill="#848048" transform="translate(140,152)"/>
<path d="M0 0 C1.32 0 2.64 0 4 0 C4 1.32 4 2.64 4 4 C2.68 4 1.36 4 0 4 C0 2.68 0 1.36 0 0 Z " fill="#838240" transform="translate(124,216)"/>
<path d="M0 0 C1.32 0.33 2.64 0.66 4 1 C4 1.99 4 2.98 4 4 C2.68 3.67 1.36 3.34 0 3 C0 2.01 0 1.02 0 0 Z " fill="#878444" transform="translate(210,160)"/>
<path d="M0 0 C0.66 0 1.32 0 2 0 C1.67 1.32 1.34 2.64 1 4 C0.34 4 -0.32 4 -1 4 C-0.67 2.68 -0.34 1.36 0 0 Z " fill="#85824A" transform="translate(148,183)"/>
<path d="M0 0 C0.99 0.33 1.98 0.66 3 1 C1.02 1.99 1.02 1.99 -1 3 C-0.67 2.01 -0.34 1.02 0 0 Z " fill="#838044" transform="translate(165,182)"/>
<path d="M0 0 C1.32 0 2.64 0 4 0 C4 0.66 4 1.32 4 2 C2.68 2 1.36 2 0 2 C0 1.34 0 0.68 0 0 Z " fill="#87864A" transform="translate(162,179)"/>
<path d="M0 0 C0.66 0 1.32 0 2 0 C1.67 0.99 1.34 1.98 1 3 C0.67 2.01 0.34 1.02 0 0 Z " fill="#848249" transform="translate(143,184)"/>
<path d="M0 0 C1 4 1 4 1 4 Z " fill="#909255" transform="translate(151,191)"/>
<path d="" fill="#828043" transform="translate(0,0)"/>
<path d="" fill="#A7A061" transform="translate(0,0)"/>
<path d="" fill="#888545" transform="translate(0,0)"/>
</svg>
